<svg width="44" height="50" viewBox="0 0 44 50" fill="none" xmlns="http://www.w3.org/2000/svg">
<path d="M16.5036 14.8351C15.416 14.8351 14.4534 14.4245 13.6399 13.615C11.8706 11.8529 11.3984 8.79332 11.3984 7.26355C11.3984 6.8037 11.4542 6.3482 11.5629 5.91009C11.6754 5.45894 12.1302 5.18844 12.5783 5.29761C13.0274 5.41064 13.2995 5.8671 13.188 6.31777C13.113 6.6187 13.0735 6.94572 13.0735 7.26355C13.0735 8.9619 13.6726 11.2785 14.8188 12.4199C15.3198 12.9189 15.9045 13.1802 16.5266 13.1522C19.122 13.1295 19.9951 9.0986 19.9951 7.26355C19.9951 6.94572 19.9557 6.6187 19.8807 6.31777C19.7691 5.8671 20.0413 5.41063 20.4903 5.29761C20.9404 5.18941 21.3942 5.45894 21.5058 5.91009C21.6144 6.3482 21.6702 6.8037 21.6702 7.26355C21.6702 10.1733 20.2778 14.8018 16.542 14.8351C16.5285 14.8351 16.516 14.8351 16.5036 14.8351Z" fill="currentColor"/>
<path d="M12.3753 6.95482C12.0551 6.95482 11.7503 6.76982 11.6108 6.45827C10.9445 4.96859 11.3099 3.87114 11.7339 3.21276C12.5542 1.93851 14.3485 1.17773 16.5332 1.17773C16.9958 1.17773 17.3708 1.5545 17.3708 2.01918C17.3708 2.48386 16.9958 2.86062 16.5332 2.86062C14.9668 2.86062 13.635 3.35767 13.1398 4.12666C12.8475 4.58071 12.8475 5.11784 13.1379 5.76849C13.3273 6.19211 13.1398 6.69012 12.7176 6.88091C12.6061 6.93116 12.4897 6.95482 12.3753 6.95482Z" fill="currentColor"/>
<path d="M20.6927 6.95482C20.5802 6.95482 20.4658 6.93212 20.3571 6.88381C19.9331 6.69736 19.7398 6.20129 19.9254 5.77573C20.2091 5.1275 20.2033 4.5696 19.91 4.11845C19.4052 3.34269 18.1109 2.86062 16.5338 2.86062C16.0713 2.86062 15.6963 2.48386 15.6963 2.01918C15.6963 1.5545 16.0713 1.17773 16.5338 1.17773C18.7022 1.17773 20.4889 1.9332 21.311 3.19778C21.739 3.85567 22.113 4.9541 21.4601 6.45102C21.3216 6.76644 21.0149 6.95482 20.6927 6.95482Z" fill="currentColor"/>
<path d="M15.5566 49.1583H13.1007C12.1006 49.1583 11.2861 48.34 11.2861 47.3353V20.611C11.2861 20.1463 11.6612 19.7695 12.1237 19.7695C12.5862 19.7695 12.9612 20.1463 12.9612 20.611V47.3353C12.9612 47.4039 13.0324 47.4754 13.1007 47.4754H15.5566C15.6249 47.4754 15.696 47.4039 15.696 47.3353V34.3514C15.696 33.8867 16.071 33.5099 16.5336 33.5099C16.9961 33.5099 17.3711 33.8867 17.3711 34.3514V47.3353C17.3711 48.34 16.5566 49.1583 15.5566 49.1583Z" fill="currentColor"/>
<path d="M17.8464 49.1588H17.5108C16.5108 49.1588 15.6963 48.3405 15.6963 47.3358C15.6963 46.8711 16.0713 46.4944 16.5338 46.4944C16.9964 46.4944 17.3714 46.8711 17.3714 47.3358C17.3714 47.4044 17.4425 47.4759 17.5108 47.4759H17.8464C18.3089 47.4759 18.684 47.8526 18.684 48.3173C18.684 48.782 18.3089 49.1588 17.8464 49.1588ZM20.9437 27.4821C20.4812 27.4821 20.1062 27.1054 20.1062 26.6407V21.0602C20.1062 20.5955 20.4812 20.2188 20.9437 20.2188C21.4063 20.2188 21.7813 20.5955 21.7813 21.0602V26.6407C21.7813 27.1054 21.4062 27.4821 20.9437 27.4821Z" fill="currentColor"/>
<path d="M3.13519 22.2379C2.96979 22.2379 2.80343 22.1886 2.65727 22.0867C2.27744 21.8205 2.18513 21.2964 2.44957 20.9153C3.0746 20.014 3.7006 19.1392 4.32468 18.2659C4.59104 17.892 5.168 17.7225 5.54206 17.9872L6.12094 18.3929C6.545 18.69 6.9633 18.9837 7.37967 19.2802C7.55083 19.0658 7.7268 18.8344 7.90758 18.5963C9.074 17.065 10.525 15.1595 12.6213 15.0049C13.4098 14.9402 13.8166 14.5016 14.1705 13.3288C14.3041 12.8849 14.7695 12.6308 15.2138 12.7675C15.6571 12.9023 15.9071 13.3718 15.7725 13.8166C15.5513 14.5508 14.9638 16.5009 12.7511 16.6825C11.3982 16.782 10.251 18.2891 9.23844 19.6188C8.85861 20.1173 8.49993 20.5883 8.13356 20.9858C7.84605 21.2993 7.37102 21.3457 7.02773 21.0964C6.44212 20.6704 5.85651 20.2594 5.26032 19.8415C4.7651 20.5356 4.29392 21.1993 3.82274 21.8775C3.66021 22.1123 3.39962 22.2379 3.13519 22.2379Z" fill="currentColor"/>
<path d="M7.23476 25.998C6.44721 25.998 5.68371 25.6405 5.10482 24.9817L2.50179 21.9458C2.19984 21.5937 2.23927 21.0623 2.59025 20.759C2.93835 20.4571 3.46819 20.4948 3.77109 20.8474L6.3674 23.8765C6.63376 24.1799 6.96455 24.3335 7.31458 24.3141C7.74633 24.3132 8.05981 24.1683 8.28194 23.8804L11.485 20.0683C11.7841 19.7123 12.311 19.6688 12.6649 19.9683C13.0178 20.2682 13.063 20.7991 12.7639 21.1541L9.58203 24.9401C9.06373 25.6116 8.26368 25.9961 7.35112 25.9961C7.31265 25.998 7.27322 25.998 7.23476 25.998Z" fill="currentColor"/>
<path d="M3.38864 21.9006C3.37807 21.9006 3.36845 21.9001 3.35884 21.9001C2.13184 21.8576 1.14813 20.9519 1.01928 19.7468C0.891385 18.5063 1.69047 17.3799 2.87612 17.1239C4.03773 16.8317 5.27338 17.5171 5.6609 18.6904C5.80706 19.1309 5.56955 19.6072 5.13106 19.754C4.69354 19.9018 4.21755 19.6622 4.07235 19.2217C3.95695 18.8715 3.6002 18.6783 3.25499 18.7628C2.86747 18.8469 2.64438 19.1768 2.68476 19.5709C2.72419 19.9376 3.02517 20.2047 3.41654 20.2182C3.87907 20.2346 4.24063 20.624 4.22428 21.0882C4.20889 21.5427 3.83771 21.9006 3.38864 21.9006Z" fill="currentColor"/>
<path d="M2.13121 19.4062C1.67253 19.4062 1.29847 19.0353 1.29366 18.574L1.21001 10.8623C1.2052 10.3977 1.57638 10.017 2.0389 10.0122C2.04179 10.0117 2.04467 10.0117 2.04756 10.0117C2.50624 10.0117 2.8803 10.3827 2.88511 10.844L2.96876 18.5556C2.97357 19.0203 2.60239 19.4009 2.13987 19.4058C2.13698 19.4062 2.1341 19.4062 2.13121 19.4062Z" fill="currentColor"/>
<path d="M20.6933 6.95397C20.6086 6.95397 20.5231 6.94093 20.4384 6.91387C17.8844 6.09368 15.1843 6.09368 12.6303 6.91387C12.1918 7.05492 11.7196 6.81147 11.5783 6.36853C11.4369 5.92607 11.6802 5.4527 12.1206 5.31117C15.0073 4.38278 18.0614 4.38374 20.9481 5.31117C21.3885 5.45269 21.6318 5.92607 21.4904 6.36853C21.377 6.72598 21.0481 6.95397 20.6933 6.95397Z" fill="currentColor"/>
<path d="M15.4447 2.91709C15.2092 2.91709 14.9745 2.8171 14.8082 2.62292C14.612 2.39203 14.2149 2.02251 13.435 1.57039C13.035 1.33805 12.8975 0.823621 13.1292 0.421254C13.36 0.0179187 13.8706 -0.119745 14.2735 0.113561C15.063 0.571959 15.6717 1.04823 16.0813 1.52837C16.3813 1.88147 16.341 2.41232 15.989 2.7147C15.8313 2.85043 15.638 2.91709 15.4447 2.91709Z" fill="currentColor"/>
<path d="M36.7144 39.1193H20.023C19.7634 39.1193 19.5182 38.9976 19.3595 38.7908C19.2008 38.5841 19.147 38.3146 19.2133 38.0624L25.6887 13.5533C25.7868 13.1847 26.1186 12.9277 26.4984 12.9277H43.1619C43.4215 12.9277 43.6667 13.049 43.8254 13.2557C43.9841 13.4629 44.0379 13.732 43.9716 13.9841L37.5241 38.4933C37.4269 38.8623 37.0942 39.1193 36.7144 39.1193ZM21.1115 37.4364H36.0692L42.0743 14.6106H27.1427L21.1115 37.4364Z" fill="currentColor"/>
<path d="M19.9674 49.1585C19.8492 49.1585 19.728 49.1324 19.6126 49.0783C19.1943 48.8812 19.0135 48.3808 19.2107 47.9596L32.3009 19.918C32.497 19.4987 32.9923 19.3157 33.4144 19.5132C33.8327 19.7108 34.0135 20.2117 33.8164 20.6319L20.7261 48.6745C20.5838 48.9798 20.2829 49.1585 19.9674 49.1585Z" fill="currentColor"/>
<path d="M42.8273 49.1585C42.4811 49.1585 42.158 48.9411 42.0369 48.5952L32.268 20.5527C32.1151 20.1141 32.3449 19.6344 32.7815 19.4808C33.2238 19.3277 33.695 19.5591 33.8489 19.9972L43.6177 48.0388C43.7706 48.4774 43.5408 48.9575 43.1042 49.1111C43.0119 49.143 42.9187 49.1585 42.8273 49.1585Z" fill="currentColor"/>
<path d="M32.3603 49.1586C32.3535 49.1586 32.3468 49.1586 32.3391 49.1586C31.8766 49.147 31.5112 48.7605 31.5227 48.2959L32.2208 20.2538C32.2324 19.7968 32.6055 19.4336 33.0584 19.4336C33.0651 19.4336 33.0719 19.4341 33.0795 19.4341C33.5421 19.4457 33.9075 19.8316 33.8959 20.2963L33.1978 48.3384C33.1863 48.7953 32.8132 49.1586 32.3603 49.1586Z" fill="currentColor"/>
<path d="M32.4729 44.2512H22.2848C21.8223 44.2512 21.4473 43.8745 21.4473 43.4098C21.4473 42.9451 21.8223 42.5684 22.2848 42.5684H32.4729C32.9355 42.5684 33.3105 42.9451 33.3105 43.4098C33.3105 43.8745 32.9355 44.2512 32.4729 44.2512Z" fill="currentColor"/>
<path d="M2.04766 11.693C1.94381 11.693 1.839 11.6737 1.73707 11.6327C0.940865 11.3129 0.368717 10.7506 0.127356 10.0507C-0.0938115 9.40974 -0.0245745 8.70016 0.316792 8.1041C0.458148 7.8307 0.654312 7.61768 0.79855 7.46263C0.857208 7.39838 0.938942 7.31047 0.95529 7.27714C0.953367 7.27714 0.971638 7.1018 0.710083 6.56757C0.506222 6.15071 0.677388 5.64642 1.0928 5.44161C1.50821 5.23729 2.01016 5.40876 2.21402 5.82562C2.9006 7.23029 2.65059 7.93165 2.02459 8.6079C1.92073 8.71996 1.839 8.80884 1.78611 8.91173C1.6688 9.11702 1.64764 9.31941 1.71015 9.49958C1.79092 9.7353 2.01497 9.93238 2.35826 10.0705C2.78809 10.243 2.99676 10.7328 2.82559 11.1641C2.69385 11.4931 2.37941 11.693 2.04766 11.693Z" fill="currentColor"/>
<path d="M2.04791 11.6932C1.71424 11.6932 1.39787 11.4908 1.26902 11.1595C1.09978 10.7272 1.31133 10.2388 1.74116 10.0688C1.97964 9.97459 2.54121 9.69588 2.60756 9.14425C2.68353 8.50278 2.0758 7.65796 0.980543 6.8851C0.602636 6.61799 0.511287 6.09293 0.777647 5.71278C1.04305 5.33311 1.56327 5.24134 1.94406 5.50845C4.17689 7.08604 4.35959 8.58876 4.27016 9.34375C4.14996 10.3518 3.43357 11.2083 2.35466 11.6348C2.25369 11.6744 2.14984 11.6932 2.04791 11.6932Z" fill="currentColor"/>
<path d="M23.0383 18.1719C22.8191 18.1719 22.5998 18.0859 22.4354 17.9144C21.6825 17.131 21.0103 16.7392 20.318 16.6827C18.3333 16.5199 17.6428 14.9689 17.2957 13.8164C17.162 13.3715 17.413 12.902 17.8553 12.7677C18.2977 12.6305 18.766 12.8846 18.8996 13.3295C19.2987 14.6573 19.7718 14.9496 20.4545 15.0056C21.5604 15.0964 22.6027 15.6654 23.6413 16.7465C23.9624 17.0807 23.9528 17.613 23.6201 17.9357C23.4576 18.0932 23.248 18.1719 23.0383 18.1719Z" fill="currentColor"/>
</svg>
