<svg width="49" height="49" viewBox="0 0 49 49" fill="none" xmlns="http://www.w3.org/2000/svg">
<path d="M48.1833 11.4322H36.2714L26.9116 2.07237C26.8238 1.49565 26.5323 0.969472 26.0899 0.589266C25.6474 0.20906 25.0834 0 24.5 0C23.9166 0 23.3526 0.20906 22.9101 0.589266C22.4677 0.969472 22.1762 1.49565 22.0884 2.07237L12.7286 11.4322H0.816667C0.600073 11.4322 0.392351 11.5182 0.239196 11.6714C0.0860414 11.8245 0 12.0323 0 12.2489V48.1822C0 48.3988 0.0860414 48.6065 0.239196 48.7597C0.392351 48.9128 0.600073 48.9989 0.816667 48.9989H48.1833C48.3999 48.9989 48.6077 48.9128 48.7608 48.7597C48.914 48.6065 49 48.3988 49 48.1822V12.2489C49 12.0323 48.914 11.8245 48.7608 11.6714C48.6077 11.5182 48.3999 11.4322 48.1833 11.4322ZM24.5 1.63219C24.6615 1.63219 24.8194 1.68009 24.9537 1.76982C25.088 1.85956 25.1927 1.98711 25.2545 2.13633C25.3163 2.28556 25.3325 2.44976 25.301 2.60818C25.2695 2.7666 25.1917 2.91211 25.0775 3.02633C24.9633 3.14054 24.8177 3.21832 24.6593 3.24983C24.5009 3.28134 24.3367 3.26517 24.1875 3.20336C24.0382 3.14155 23.9107 3.03687 23.821 2.90257C23.7312 2.76827 23.6833 2.61038 23.6833 2.44886C23.6833 2.23226 23.7694 2.02454 23.9225 1.87139C24.0757 1.71823 24.2834 1.63219 24.5 1.63219ZM22.5522 3.91886C22.7778 4.22305 23.0714 4.47019 23.4097 4.64048C23.7479 4.81077 24.1213 4.89946 24.5 4.89946C24.8787 4.89946 25.2521 4.81077 25.5903 4.64048C25.9286 4.47019 26.2222 4.22305 26.4477 3.91886L33.9611 11.4322H15.0381L22.5522 3.91886ZM46.2119 13.0655L43.7619 15.5155H5.2381L2.7881 13.0655H46.2119ZM43.2833 17.1489V43.2822H5.71667V17.1489H43.2833ZM1.63333 14.2203L4.08333 16.6703V43.7608L1.63333 46.2108V14.2203ZM2.7881 47.3655L5.2381 44.9155H43.7619L46.2119 47.3655H2.7881ZM47.3667 46.2108L44.9167 43.7608V16.6703L47.3667 14.2203V46.2108Z" fill="currentColor"/>
<path d="M8.98366 40.831H40.017C40.2336 40.831 40.4413 40.7449 40.5945 40.5918C40.7476 40.4386 40.8337 40.2309 40.8337 40.0143V20.4143C40.8337 20.1977 40.7476 19.99 40.5945 19.8369C40.4413 19.6837 40.2336 19.5977 40.017 19.5977H8.98366C8.76707 19.5977 8.55934 19.6837 8.40619 19.8369C8.25303 19.99 8.16699 20.1977 8.16699 20.4143V40.0143C8.16699 40.2309 8.25303 40.4386 8.40619 40.5918C8.55934 40.7449 8.76707 40.831 8.98366 40.831ZM9.80033 21.231H39.2003V33.4377L32.3542 28.0747C32.2152 27.9655 32.0445 27.9045 31.8678 27.9007C31.691 27.8968 31.5179 27.9504 31.3742 28.0534L26.1753 31.766L18.7665 25.5062C18.6168 25.3798 18.4266 25.3113 18.2307 25.3134C18.0347 25.3155 17.8461 25.388 17.6991 25.5177L9.80033 32.4879V21.231ZM9.80033 34.666L18.2512 27.2098L25.6061 33.4246C25.7449 33.5418 25.9188 33.6093 26.1003 33.6166C26.2817 33.6238 26.4605 33.5704 26.6081 33.4647L31.8275 29.7374L39.2003 35.512V39.1977H9.80033V34.666Z" fill="currentColor"/>
<path d="M26.1336 28.5816C26.6182 28.5816 27.0918 28.438 27.4947 28.1687C27.8976 27.8995 28.2117 27.5169 28.3971 27.0692C28.5825 26.6215 28.6311 26.1289 28.5365 25.6537C28.442 25.1784 28.2086 24.7419 27.866 24.3992C27.5234 24.0566 27.0868 23.8233 26.6116 23.7287C26.1363 23.6342 25.6437 23.6827 25.196 23.8681C24.7483 24.0536 24.3657 24.3676 24.0965 24.7705C23.8273 25.1734 23.6836 25.6471 23.6836 26.1316C23.6836 26.7814 23.9417 27.4046 24.4012 27.8641C24.8606 28.3235 25.4838 28.5816 26.1336 28.5816ZM26.1336 25.315C26.2951 25.315 26.453 25.3629 26.5873 25.4526C26.7216 25.5423 26.8263 25.6699 26.8881 25.8191C26.9499 25.9683 26.9661 26.1325 26.9346 26.291C26.9031 26.4494 26.8253 26.5949 26.7111 26.7091C26.5969 26.8233 26.4513 26.9011 26.2929 26.9326C26.1345 26.9641 25.9703 26.948 25.8211 26.8861C25.6718 26.8243 25.5443 26.7197 25.4546 26.5854C25.3648 26.4511 25.3169 26.2932 25.3169 26.1316C25.3169 25.915 25.403 25.7073 25.5561 25.5542C25.7093 25.401 25.917 25.315 26.1336 25.315Z" fill="currentColor"/>
<path d="M17.7418 29.6201L16.0127 31.2539L17.1339 32.4405L18.863 30.8066L17.7418 29.6201Z" fill="currentColor"/>
<path d="M15.1477 32.0702L11.6895 35.3379L12.8107 36.5245L16.2689 33.2568L15.1477 32.0702Z" fill="currentColor"/>
<path d="M31.3585 32.0207L28.0918 34.4707L29.0718 35.7774L32.3385 33.3274L31.3585 32.0207Z" fill="currentColor"/>
</svg>
