<svg width="55" height="55" viewBox="0 0 55 55" fill="none" xmlns="http://www.w3.org/2000/svg">
<g clip-path="url(#clip0)">
<path d="M15.6195 5.11914C13.0895 5.11914 11.0195 7.45914 11.0195 10.3291C11.0195 13.1991 13.0795 15.5391 15.6195 15.5391C18.1595 15.5391 20.2195 13.1991 20.2195 10.3291C20.2195 7.45914 18.1595 5.11914 15.6195 5.11914ZM15.6195 13.7891C14.0495 13.7891 12.7695 12.2391 12.7695 10.3291C12.7695 8.41914 14.0495 6.86914 15.6195 6.86914C17.1895 6.86914 18.4695 8.41914 18.4695 10.3291C18.4695 12.2391 17.1995 13.7891 15.6195 13.7891Z" fill="url(#paint0_linear)"/>
<path d="M44.9499 15.6292C46.4799 15.6292 47.7299 14.2392 47.7299 12.5392C47.7299 10.8392 46.4799 9.44922 44.9499 9.44922C43.4199 9.44922 42.1699 10.8392 42.1699 12.5392C42.1699 14.2392 43.4099 15.6292 44.9499 15.6292ZM44.9499 11.1992C45.5099 11.1992 45.9799 11.8192 45.9799 12.5492C45.9799 13.2792 45.4999 13.8992 44.9499 13.8992C44.3999 13.8992 43.9199 13.2792 43.9199 12.5492C43.9099 11.8092 44.3799 11.1992 44.9499 11.1992Z" fill="url(#paint1_linear)"/>
<path d="M39.1404 39.9593C40.6704 39.9593 41.9203 38.5693 41.9203 36.8693C41.9203 35.1693 40.6704 33.7793 39.1404 33.7793C37.6104 33.7793 36.3604 35.1693 36.3604 36.8693C36.3604 38.5693 37.6004 39.9593 39.1404 39.9593ZM39.1404 35.5293C39.7004 35.5293 40.1703 36.1493 40.1703 36.8793C40.1703 37.6093 39.6904 38.2293 39.1404 38.2293C38.5804 38.2293 38.1104 37.6093 38.1104 36.8793C38.1104 36.1493 38.5704 35.5293 39.1404 35.5293Z" fill="url(#paint2_linear)"/>
<path d="M12.0303 42.6896C12.0303 44.3896 13.2803 45.7796 14.8103 45.7796C16.3403 45.7796 17.5903 44.3896 17.5903 42.6896C17.5903 40.9896 16.3403 39.5996 14.8103 39.5996C13.2803 39.5996 12.0303 40.9796 12.0303 42.6896ZM15.8403 42.6896C15.8403 43.4196 15.3603 44.0396 14.8103 44.0396C14.2603 44.0396 13.7803 43.4196 13.7803 42.6896C13.7803 41.9596 14.2603 41.3396 14.8103 41.3396C15.3603 41.3396 15.8403 41.9496 15.8403 42.6896Z" fill="url(#paint3_linear)"/>
<path d="M35.99 15.72C36.43 20.3 40.3 23.89 44.99 23.89C49.97 23.89 54.03 19.83 54.03 14.85C54.03 9.87 49.97 5.81 44.99 5.81C40.3 5.81 36.43 9.4 35.99 13.98H31.32C30.46 6.13 23.79 0 15.71 0C7.05 0 0 7.05 0 15.71C0 23.79 6.13 30.46 13.98 31.32V35.99C9.4 36.43 5.81 40.3 5.81 44.99C5.81 49.97 9.87 54.03 14.85 54.03C19.83 54.03 23.89 49.97 23.89 44.99C23.89 40.3 20.3 36.43 15.72 35.99V31.42C19.73 31.42 23.4 29.9 26.18 27.41L32.2 33.43C30.92 35 30.14 37 30.14 39.18C30.14 44.16 34.2 48.22 39.18 48.22C44.16 48.22 48.22 44.16 48.22 39.18C48.22 34.2 44.16 30.14 39.18 30.14C37 30.14 35 30.91 33.43 32.2L27.41 26.18C29.9 23.4 31.42 19.74 31.42 15.72H35.99ZM39.18 46.48C38.1 46.48 37.08 46.24 36.15 45.81L36.36 42.67C36.37 42.59 36.42 42.52 36.49 42.51L37.78 42.12C37.85 42.1 37.93 42.12 37.97 42.18L38.46 42.75L38.49 42.78L38.5 42.8C38.5 42.81 38.51 42.81 38.51 42.81C38.53 42.83 38.56 42.86 38.58 42.89C38.59 42.9 38.61 42.91 38.62 42.92C38.63 42.93 38.64 42.93 38.65 42.94C38.68 42.96 38.73 42.99 38.76 43.01C38.77 43.02 38.79 43.02 38.8 43.03C38.83 43.05 38.88 43.06 38.92 43.07C38.94 43.08 38.95 43.08 38.97 43.08C39 43.09 39.04 43.09 39.07 43.1C39.09 43.1 39.12 43.1 39.15 43.1C39.18 43.1 39.21 43.1 39.24 43.1C39.27 43.09 39.3 43.09 39.33 43.08C39.35 43.07 39.37 43.07 39.39 43.07C39.42 43.06 39.46 43.05 39.49 43.03C39.51 43.02 39.52 43.02 39.54 43.01C39.58 42.99 39.62 42.97 39.65 42.94C39.66 42.93 39.67 42.93 39.68 42.92C39.69 42.91 39.71 42.9 39.72 42.89C39.75 42.87 39.77 42.84 39.8 42.81L39.81 42.8L39.82 42.79L39.85 42.75L40.34 42.18C40.39 42.13 40.46 42.1 40.54 42.12L41.84 42.51C41.92 42.53 41.97 42.6 41.97 42.67L42.18 45.81C41.29 46.24 40.26 46.48 39.18 46.48ZM46.48 39.18C46.48 41.41 45.47 43.41 43.89 44.75L43.74 42.56C43.69 41.76 43.14 41.07 42.37 40.84L41.07 40.45C40.4 40.25 39.68 40.43 39.18 40.91C38.68 40.43 37.96 40.25 37.29 40.45L35.99 40.84C35.22 41.07 34.68 41.76 34.62 42.56L34.47 44.75C32.89 43.41 31.88 41.42 31.88 39.18C31.88 37.19 32.68 35.39 33.98 34.07C34 34.06 34.01 34.05 34.03 34.04C34.05 34.02 34.05 34.01 34.06 33.99C35.38 32.69 37.19 31.89 39.17 31.89C43.21 31.89 46.48 35.16 46.48 39.18ZM44.99 22.15C43.91 22.15 42.89 21.91 41.96 21.48L42.17 18.34C42.18 18.26 42.23 18.19 42.3 18.18L43.6 17.79C43.67 17.77 43.75 17.79 43.79 17.85L44.28 18.42L44.31 18.45L44.32 18.47C44.32 18.48 44.33 18.48 44.33 18.48C44.35 18.5 44.38 18.53 44.4 18.56C44.41 18.57 44.43 18.58 44.44 18.59C44.45 18.6 44.46 18.6 44.47 18.61C44.5 18.64 44.55 18.66 44.59 18.68C44.6 18.69 44.61 18.69 44.62 18.7C44.66 18.72 44.7 18.73 44.74 18.74C44.76 18.75 44.77 18.75 44.79 18.75C44.82 18.76 44.86 18.76 44.89 18.77C44.91 18.77 44.94 18.77 44.97 18.77C45 18.77 45.03 18.77 45.06 18.77C45.09 18.76 45.12 18.76 45.15 18.75C45.17 18.74 45.19 18.74 45.21 18.74C45.24 18.73 45.29 18.72 45.32 18.7C45.34 18.69 45.35 18.69 45.37 18.68C45.41 18.66 45.45 18.64 45.48 18.61C45.49 18.6 45.5 18.6 45.51 18.59C45.52 18.58 45.54 18.57 45.55 18.56C45.58 18.54 45.6 18.51 45.63 18.48L45.64 18.47L45.65 18.46L45.68 18.42L46.17 17.85C46.22 17.8 46.29 17.77 46.37 17.79L47.67 18.18C47.75 18.2 47.8 18.27 47.8 18.34L48.01 21.48C47.1 21.9 46.07 22.15 44.99 22.15ZM44.99 7.55C49.02 7.55 52.29 10.82 52.29 14.85C52.29 17.08 51.28 19.08 49.7 20.42L49.55 18.23C49.5 17.43 48.95 16.74 48.18 16.51L46.88 16.12C46.21 15.92 45.49 16.1 44.99 16.58C44.49 16.1 43.77 15.92 43.1 16.12L41.8 16.51C41.03 16.74 40.49 17.43 40.43 18.23L40.28 20.42C38.7 19.08 37.69 17.09 37.69 14.85C37.7 10.82 40.97 7.55 44.99 7.55ZM14.85 52.29C13.77 52.29 12.75 52.05 11.82 51.62L12.03 48.48C12.04 48.4 12.09 48.33 12.16 48.32L13.46 47.93C13.53 47.91 13.61 47.93 13.65 47.99L14.14 48.56L14.17 48.59L14.18 48.61C14.18 48.62 14.19 48.62 14.19 48.62C14.21 48.64 14.24 48.67 14.26 48.7C14.27 48.71 14.29 48.72 14.3 48.73C14.31 48.74 14.32 48.75 14.33 48.75C14.36 48.77 14.41 48.8 14.44 48.82C14.45 48.83 14.47 48.83 14.48 48.84C14.51 48.86 14.56 48.87 14.59 48.88C14.61 48.89 14.63 48.89 14.65 48.89C14.68 48.9 14.72 48.9 14.75 48.91C14.78 48.91 14.8 48.91 14.83 48.91C14.86 48.91 14.88 48.91 14.91 48.91C14.94 48.9 14.97 48.9 15.01 48.89C15.03 48.88 15.05 48.88 15.07 48.88C15.1 48.87 15.15 48.86 15.18 48.84C15.19 48.83 15.21 48.83 15.22 48.82C15.26 48.8 15.3 48.78 15.33 48.75C15.34 48.74 15.35 48.74 15.36 48.73C15.37 48.72 15.39 48.71 15.4 48.7C15.43 48.68 15.45 48.65 15.48 48.62L15.49 48.61L15.5 48.6L15.53 48.56L16.02 47.99C16.07 47.93 16.14 47.91 16.22 47.93L17.52 48.32C17.6 48.34 17.65 48.41 17.65 48.48L17.86 51.62C16.95 52.05 15.93 52.29 14.85 52.29ZM22.15 44.99C22.15 47.22 21.14 49.22 19.56 50.56L19.41 48.37C19.36 47.57 18.81 46.88 18.04 46.65L16.74 46.26C16.07 46.06 15.35 46.24 14.85 46.72C14.35 46.24 13.63 46.06 12.96 46.26L11.66 46.65C10.89 46.88 10.35 47.57 10.29 48.37L10.14 50.56C8.56 49.23 7.55 47.24 7.55 45C7.55 40.97 10.82 37.7 14.85 37.7C18.88 37.7 22.15 40.97 22.15 44.99ZM15.71 29.68C13.26 29.68 10.96 29.05 8.95 27.93L9.37 21.6C9.4 21.11 9.74 20.68 10.21 20.54L12.75 19.77C13.2 19.64 13.69 19.78 13.99 20.13L14.98 21.27L15.04 21.34C15.04 21.34 15.05 21.34 15.05 21.35C15.07 21.38 15.1 21.41 15.12 21.43C15.15 21.46 15.2 21.48 15.24 21.51C15.25 21.51 15.25 21.52 15.25 21.52C15.32 21.56 15.4 21.6 15.47 21.62C15.48 21.62 15.49 21.63 15.5 21.63C15.54 21.64 15.58 21.65 15.63 21.65C15.65 21.65 15.68 21.65 15.7 21.65C15.73 21.65 15.76 21.65 15.79 21.65C15.82 21.64 15.87 21.64 15.9 21.63C15.91 21.62 15.93 21.62 15.94 21.62C15.99 21.61 16.03 21.59 16.08 21.57C16.08 21.57 16.09 21.57 16.09 21.56C16.16 21.53 16.22 21.49 16.29 21.44C16.32 21.42 16.34 21.39 16.37 21.36C16.37 21.36 16.37 21.36 16.38 21.35L16.44 21.29L17.44 20.15C17.75 19.8 18.24 19.66 18.69 19.79L21.23 20.56C21.71 20.71 22.04 21.13 22.08 21.62L22.5 27.95C20.46 29.04 18.16 29.68 15.71 29.68ZM24.15 26.84L23.8 21.49C23.72 20.28 22.88 19.22 21.71 18.88L19.17 18.11C18.07 17.78 16.86 18.12 16.1 18.99L15.7 19.44L15.3 18.99C14.54 18.12 13.34 17.78 12.24 18.11L9.7 18.87C8.54 19.22 7.7 20.27 7.62 21.48L7.27 26.83C3.92 24.28 1.74 20.24 1.74 15.7C1.74 8 8.01 1.73 15.71 1.73C23.41 1.73 29.68 8 29.68 15.7C29.68 20.25 27.5 24.29 24.15 26.84Z" fill="currentColor"/>
</g>
<defs>
<linearGradient id="paint0_linear" x1="21.739" y1="7.03935" x2="10.6609" y2="7.5358" gradientUnits="userSpaceOnUse">
<stop stop-color="#5DA6FB"/>
<stop offset="1" stop-color="#6377FF"/>
</linearGradient>
<linearGradient id="paint1_linear" x1="48.6482" y1="10.5881" x2="41.9537" y2="10.8938" gradientUnits="userSpaceOnUse">
<stop stop-color="#5DA6FB"/>
<stop offset="1" stop-color="#6377FF"/>
</linearGradient>
<linearGradient id="paint2_linear" x1="42.8387" y1="34.9182" x2="36.1441" y2="35.2239" gradientUnits="userSpaceOnUse">
<stop stop-color="#5DA6FB"/>
<stop offset="1" stop-color="#6377FF"/>
</linearGradient>
<linearGradient id="paint3_linear" x1="18.5086" y1="40.7385" x2="11.814" y2="41.0442" gradientUnits="userSpaceOnUse">
<stop stop-color="#5DA6FB"/>
<stop offset="1" stop-color="#6377FF"/>
</linearGradient>
<clipPath id="clip0">
<rect width="54.03" height="54.03" fill="white"/>
</clipPath>
</defs>
</svg>
