<svg viewBox="0 0 120 120" fill="none" xmlns="http://www.w3.org/2000/svg">
<circle cx="60" cy="60" r="60" fill="#00A653" fill-opacity="0.1"/>
<path d="M76.9925 70.7362C76.9925 61.995 70.01 58.9725 63.7738 57.1313V43.8113C65.6443 44.1464 67.4684 44.7028 69.2075 45.4688L72.56 47.1262L75.8825 40.3988L72.5075 38.7413C69.7318 37.4914 66.7902 36.649 63.7738 36.24V30H56.2738V36.2588C48.3462 37.4513 43.2425 42.375 43.2425 49.26C43.2425 57.9113 50.0863 60.96 56.2738 62.8087V76.3087C53.1395 76.0335 50.0505 75.3774 47.075 74.355L43.5462 73.08L41 80.1338L44.5288 81.4087C48.3196 82.7392 52.268 83.5688 56.2738 83.8762V90H63.7738V83.7863C75.59 82.335 76.9925 74.3512 76.9925 70.7362ZM50.7425 49.26C50.7425 45.8625 53.6075 44.4488 56.2738 43.875V54.9187C52.4788 53.5687 50.7425 52.125 50.7425 49.26V49.26ZM63.7738 76.2262V65.0063C67.7113 66.375 69.4925 67.815 69.4925 70.7362C69.4925 72.0637 69.47 75.2362 63.7738 76.2262Z" fill="#00A653"/>
</svg>
