<svg viewBox="0 0 21 15" fill="none" xmlns="http://www.w3.org/2000/svg">
<path d="M18.48 0H2.52C1.127 0 0 1.09773 0 2.45455V12.5455C0 13.9023 1.127 15 2.52 15H18.48C19.873 15 21 13.9023 21 12.5455V2.45455C21 1.09773 19.873 0 18.48 0ZM18.48 1.36364C18.494 1.36364 18.501 1.36364 18.515 1.36364L10.5 7.97045L2.485 1.37045C2.499 1.37045 2.506 1.37045 2.52 1.37045L18.48 1.36364ZM19.6 12.5455C19.6 13.1455 19.096 13.6364 18.48 13.6364H2.52C1.904 13.6364 1.4 13.1455 1.4 12.5455V2.45455C1.4 2.39318 1.407 2.33182 1.421 2.27045L10.052 9.38182C10.311 9.6 10.696 9.6 10.955 9.38182L19.579 2.27045C19.593 2.33182 19.6 2.39318 19.6 2.45455V12.5455Z" fill="white"/>
</svg>
