<svg width="52" height="52" viewBox="0 0 52 52" fill="none" xmlns="http://www.w3.org/2000/svg">
<g clip-path="url(#clip0)">
<path d="M25.7505 23.3702C26.8105 23.3702 27.4805 23.8802 27.4805 24.2402C27.4805 24.7202 27.8705 25.1102 28.3505 25.1102C28.8305 25.1102 29.2205 24.7202 29.2205 24.2402C29.2205 23.0102 28.1305 22.0202 26.6205 21.7302V20.7802C26.6205 20.3002 26.2305 19.9102 25.7505 19.9102C25.2705 19.9102 24.8805 20.3002 24.8805 20.7802V21.7302C23.3705 22.0102 22.2805 23.0102 22.2805 24.2402C22.2805 25.7002 23.8005 26.8402 25.7405 26.8402C26.8005 26.8402 27.4705 27.3502 27.4705 27.7102C27.4705 28.0702 26.8005 28.5802 25.7405 28.5802C24.6805 28.5802 24.0105 28.0702 24.0105 27.7102C24.0105 27.2302 23.6205 26.8402 23.1405 26.8402C22.6605 26.8402 22.2705 27.2302 22.2705 27.7102C22.2705 28.9402 23.3605 29.9302 24.8705 30.2202V31.1702C24.8705 31.6502 25.2605 32.0402 25.7405 32.0402C26.2205 32.0402 26.6105 31.6502 26.6105 31.1702V30.2002C28.1205 29.9202 29.2105 28.9202 29.2105 27.6902C29.2105 26.2302 27.6905 25.0902 25.7505 25.0902C24.6905 25.0902 24.0205 24.5802 24.0205 24.2202C24.0205 23.8802 24.7005 23.3702 25.7505 23.3702Z" fill="currentColor"/>
<path d="M31.1 17.6C31.98 16.81 32.05 15.45 31.26 14.57C31.06 14.34 30.8 14.16 30.52 14.04L32.58 9.91C32.8 9.48 32.62 8.96 32.2 8.75C32.08 8.69 31.95 8.66 31.81 8.66H29.21C29.02 8.66 28.84 8.72 28.69 8.83L26.61 10.39V6.92H27.48C29.87 6.92 31.81 4.98 31.81 2.59V0.87C31.81 0.39 31.42 0 30.94 0H29.21C27.84 0.01 26.56 0.66 25.75 1.76C24.94 0.66 23.66 0.01 22.29 0H20.56C20.08 0 19.69 0.39 19.69 0.87V2.6C19.69 4.99 21.63 6.93 24.02 6.93H24.89V10.39L22.81 8.83C22.66 8.72 22.48 8.66 22.29 8.66H19.69C19.21 8.66 18.83 9.05 18.83 9.53C18.83 9.66 18.86 9.8 18.92 9.92L20.98 14.05C19.89 14.52 19.4 15.79 19.87 16.88C19.99 17.16 20.17 17.41 20.4 17.62C17.48 20.14 14.5 23.53 14.5 26.85C14.5 32.43 18.5 35.5 25.75 35.5C33 35.5 37 32.41 37 26.83C37 23.51 34.02 20.12 31.1 17.6ZM26.62 4.33C26.62 2.9 27.78 1.74 29.22 1.73H30.09V2.6C30.09 4.03 28.93 5.19 27.49 5.2H26.62V4.33ZM24.02 5.19C22.59 5.19 21.43 4.03 21.42 2.59V1.73H22.29C23.72 1.73 24.88 2.89 24.89 4.33V5.2H24.02V5.19ZM22.01 10.39L25.24 12.81C25.55 13.04 25.97 13.04 26.28 12.81L29.51 10.39H30.42L28.69 13.85H22.84L21.11 10.39H22.01ZM30.08 16.01C30.08 16.25 29.89 16.44 29.65 16.44H21.86C21.62 16.44 21.43 16.25 21.43 16.01C21.43 15.77 21.62 15.58 21.86 15.58H29.65C29.89 15.58 30.08 15.77 30.08 16.01ZM25.75 33.75C21.41 33.75 16.23 32.55 16.23 26.83C16.23 24.48 18.43 21.41 22.43 18.18H29.08C33.08 21.42 35.28 24.48 35.28 26.83C35.27 32.55 30.1 33.75 25.75 33.75Z" fill="currentColor"/>
<path d="M49.7502 21.9495C49.7702 21.7995 49.7802 21.6395 49.7802 21.4895C49.7702 19.8595 48.6302 18.4495 47.0302 18.1095C45.2102 17.7695 43.4302 18.8895 42.9602 20.6795L39.1502 31.6395C39.0902 31.6595 39.0402 31.6895 38.9902 31.7195L31.3402 36.1995C28.9602 37.5995 27.4902 40.1495 27.4902 42.9195V51.0695C27.4902 51.5495 27.8802 51.9395 28.3602 51.9395C28.8402 51.9395 29.2302 51.5495 29.2302 51.0695V42.9195C29.2402 40.7695 30.3802 38.7895 32.2202 37.6895L39.8602 33.2195C40.6902 32.7395 41.7502 33.0195 42.2302 33.8395V33.8495C42.4502 34.2495 42.5202 34.7195 42.4002 35.1695C42.2802 35.6095 41.9902 35.9895 41.5902 36.2195L36.6302 39.0795C36.2302 39.3395 36.1102 39.8695 36.3602 40.2695C36.6002 40.6495 37.0902 40.7795 37.4902 40.5695L42.4502 37.7095C43.2502 37.2595 43.8302 36.4995 44.0702 35.6095C44.3102 34.7195 44.1802 33.7795 43.7202 32.9895L43.6702 32.9095L46.3402 24.6595C46.5602 23.7295 47.4602 23.1295 48.4002 23.2795C49.2002 23.4495 49.7702 24.1495 49.7802 24.9695C49.7802 25.1195 49.7602 25.2695 49.7202 25.4195L45.9602 39.4695C45.8302 39.9595 45.5602 40.3995 45.1802 40.7295L39.3202 45.9295C38.4002 46.7595 37.8802 47.9295 37.8702 49.1695V51.0695C37.8702 51.5495 38.2602 51.9395 38.7402 51.9395C39.2202 51.9395 39.6102 51.5495 39.6102 51.0695V49.1695C39.6102 48.4295 39.9302 47.7295 40.4802 47.2295L46.3302 42.0295C46.9702 41.4695 47.4302 40.7295 47.6502 39.9095L51.4102 25.8595C51.4902 25.5695 51.5302 25.2595 51.5302 24.9595C51.5002 23.7095 50.8302 22.5595 49.7502 21.9495ZM48.0502 21.4995C46.4602 21.5395 45.0902 22.6195 44.6802 24.1595L42.2702 31.6095C41.9102 31.4295 41.5102 31.3195 41.1102 31.2795L44.6102 21.1895C44.8302 20.2595 45.7302 19.6595 46.6702 19.8095C47.4702 19.9695 48.0402 20.6695 48.0502 21.4995Z" fill="currentColor"/>
<path d="M20.1704 36.1902L12.5104 31.7002C12.4604 31.6702 12.4004 31.6502 12.3504 31.6302L8.57043 20.7402C8.12043 18.9202 6.32043 17.7702 4.48043 18.1102C2.88043 18.4502 1.74043 19.8602 1.73043 21.4902C1.73043 21.6402 1.74043 21.8002 1.76043 21.9502C0.390427 22.7202 -0.289573 24.3202 0.120427 25.8402L3.88043 39.9002C4.10043 40.7202 4.55043 41.4602 5.19043 42.0202L11.0404 47.2202C11.5904 47.7102 11.9104 48.4202 11.9104 49.1602V51.0602C11.9104 51.5402 12.3004 51.9302 12.7804 51.9302C13.2604 51.9302 13.6504 51.5402 13.6504 51.0602V49.1602C13.6504 47.9202 13.1204 46.7502 12.2004 45.9302L6.35043 40.7302C5.97043 40.3902 5.70043 39.9502 5.57043 39.4602L1.79043 25.4002C1.75043 25.2502 1.73043 25.1002 1.73043 24.9502C1.73043 24.1302 2.30043 23.4302 3.10043 23.2602C4.06043 23.1202 4.97043 23.7402 5.18043 24.6902L7.84043 32.9002C7.82043 32.9302 7.80043 32.9502 7.79043 32.9802C6.83043 34.6402 7.40043 36.7502 9.06043 37.7102L14.0204 40.5702C14.4304 40.8102 14.9604 40.6702 15.2004 40.2602C15.4404 39.8502 15.3004 39.3202 14.8904 39.0802C14.8904 39.0802 14.8804 39.0802 14.8804 39.0702L9.92043 36.2002C9.09043 35.7202 8.81043 34.6602 9.28043 33.8302C9.76043 33.0002 10.8204 32.7202 11.6504 33.1902L19.3004 37.6702C21.1504 38.7602 22.2904 40.7502 22.2904 42.9002V51.0502C22.2904 51.5302 22.6804 51.9202 23.1604 51.9202C23.6404 51.9202 24.0304 51.5302 24.0304 51.0502V42.9002C24.0204 40.1502 22.5504 37.5902 20.1704 36.1902ZM9.89043 31.3602C9.67043 31.4202 9.45043 31.5002 9.24043 31.6002L6.84043 24.1902C6.44043 22.6402 5.06043 21.5402 3.46043 21.5002V21.4902C3.46043 20.6702 4.03043 19.9702 4.83043 19.8002C5.80043 19.6602 6.71043 20.2902 6.92043 21.2402L10.4004 31.2702C10.2304 31.2902 10.0604 31.3202 9.89043 31.3602Z" fill="currentColor"/>
</g>
<defs>
<clipPath id="clip0">
<rect width="51.51" height="51.93" fill="white"/>
</clipPath>
</defs>
</svg>
