<svg width="140" height="140" viewBox="0 0 140 140" fill="none" xmlns="http://www.w3.org/2000/svg">
<path d="M70 0L130.622 35V105L70 140L9.37822 105V35L70 0Z" fill="white"/>
<path d="M70 0L130.622 35V105L70 140L9.37822 105V35L70 0Z" stroke="#2F80ED"/>
<path d="M97 44.0078H43V104.993H97V44.0078Z" fill="#505352"/>
<path d="M91.7314 50.3906H48.5693V99.1423H91.7314V50.3906Z" fill="#F1F2F2"/>
<path d="M64.6129 53.0098H88.6269V74.5038L80.7276 63.7529L70.0003 68.3716L55.7656 57.0874L64.6129 53.0098Z" fill="#348BBC"/>
<path d="M64.6124 53.0098H51.6338V56.4209V69.2499L70.1499 74.7704L75.166 85.8585L79.8661 76.7779L88.6265 87.6778V74.5038L80.7271 63.7529L66.532 60.1692L58.1666 58.3499" fill="#F3B056"/>
<path d="M51.6338 63.752L70.1499 74.7695L64.0753 86.1399L74.2338 90.5077V96.8909H51.6338V63.752Z" fill="#D857A0"/>
<path d="M74.2344 90.5082L81.1542 86.2109L84.8116 90.5082H88.627V96.8913H70.1504L74.2344 90.5082Z" fill="#4EA575"/>
<path d="M97.0003 44.0078L91.7314 50.3909V99.1426L97.0003 105V44.0078Z" fill="#7D7D7D"/>
<path opacity="0.5" d="M80.1668 21L91.7314 46.2345H48.5693L60.4421 21H80.1668Z" fill="#F3B056"/>
<path opacity="0.7" d="M80.1661 21L77.0538 36.8245H64.9045L60.4414 21H80.1661Z" fill="white"/>
</svg>
