<svg viewBox="0 0 120 120" fill="none" xmlns="http://www.w3.org/2000/svg">
<circle cx="60" cy="60" r="60" fill="#188BF4" fill-opacity="0.25"/>
<path d="M92.2958 43.1678L90.6418 42.0388C90.5334 41.9646 90.4114 41.9126 90.2829 41.8856C90.1544 41.8586 90.0218 41.8571 89.8927 41.8814C89.7636 41.9056 89.6406 41.955 89.5306 42.0268C89.4206 42.0986 89.3259 42.1914 89.2518 42.2998L77.5728 59.3738L66.1808 37.5378C66.0973 37.3703 65.9671 37.2305 65.806 37.1352C65.645 37.04 65.4598 36.9933 65.2728 37.0008C65.0865 37.0048 64.905 37.0607 64.7488 37.1623C64.5926 37.2639 64.4679 37.4071 64.3888 37.5758L50.0418 68.1928L43.0488 57.7118C42.9517 57.5659 42.8179 57.4481 42.661 57.3702C42.504 57.2922 42.3293 57.2569 42.1544 57.2677C41.9795 57.2786 41.8105 57.3352 41.6644 57.4319C41.5183 57.5286 41.4001 57.662 41.3218 57.8188L30.1058 80.2548C30.047 80.3722 30.0119 80.5001 30.0025 80.6312C29.9932 80.7622 30.0097 80.8938 30.0512 81.0184C30.0928 81.143 30.1584 81.2582 30.2445 81.3575C30.3305 81.4567 30.4353 81.538 30.5528 81.5968L32.3418 82.4898C32.4592 82.5489 32.5872 82.5841 32.7183 82.5933C32.8495 82.6026 32.9812 82.5858 33.1058 82.5438C33.357 82.4602 33.5649 82.2804 33.6838 82.0438L42.5888 64.2328L49.6618 74.8408C49.759 74.9896 49.8949 75.1093 50.0547 75.1871C50.2146 75.265 50.3926 75.298 50.5698 75.2828C50.7464 75.2695 50.9163 75.2095 51.0621 75.109C51.2079 75.0085 51.3245 74.8711 51.3998 74.7108L65.4418 44.7628L76.3418 65.6548C76.4217 65.8077 76.5399 65.9374 76.6848 66.0312C76.8297 66.1249 76.9965 66.1796 77.1688 66.1898C77.3408 66.1982 77.5123 66.1629 77.667 66.0872C77.8218 66.0115 77.9548 65.8978 78.0538 65.7568L92.5568 44.5548C92.6309 44.4464 92.683 44.3244 92.71 44.1959C92.737 44.0674 92.7384 43.9348 92.7142 43.8057C92.6899 43.6766 92.6405 43.5536 92.5687 43.4436C92.4969 43.3337 92.4042 43.2389 92.2958 43.1648V43.1678Z" fill="#188BF4"/>
</svg>
