<svg width="60" height="62" viewBox="0 0 60 62" fill="none" xmlns="http://www.w3.org/2000/svg">
<g clip-path="url(#clip0)">
<path d="M30.1747 46.3954C29.7464 46.1812 29.2279 46.3503 29.0137 46.7786C27.2553 49.7093 23.4454 50.6449 20.526 48.8865C19.6581 48.368 18.9367 47.6466 18.4182 46.7786C18.204 46.3503 17.6855 46.1812 17.2572 46.3954C16.8288 46.6096 16.6598 47.1281 16.8739 47.5564C19.0607 51.3437 23.9075 52.6287 27.6836 50.442C28.8784 49.7544 29.8816 48.7512 30.5692 47.5564C30.7721 47.1281 30.603 46.6096 30.1747 46.3954Z" fill="currentColor"/>
<path d="M23.7272 51.7939C23.0171 51.7939 22.307 51.7037 21.5968 51.5121C19.4777 50.9485 17.708 49.5959 16.6147 47.7022C16.3216 47.1274 16.547 46.4285 17.1219 46.1467C17.6855 45.8649 18.3843 46.0903 18.6661 46.6539C19.1508 47.4542 19.8497 48.1531 20.6725 48.6491C22.0252 49.4606 23.6145 49.6973 25.1362 49.3254C26.6692 48.9421 27.9541 47.9953 28.777 46.6427C29.0588 46.1016 29.7464 45.8762 30.31 46.158C30.8735 46.4398 31.099 47.1386 30.8172 47.7022C30.0958 48.9534 29.0588 49.9904 27.8189 50.7118C26.5564 51.4219 25.1475 51.7939 23.7272 51.7939ZM17.6291 46.575C17.539 46.575 17.4488 46.5976 17.3699 46.6427C17.0768 46.7892 16.9641 47.1386 17.1106 47.4317C18.1251 49.1788 19.7708 50.4413 21.7434 50.9711C23.7159 51.5008 25.7674 51.219 27.5371 50.2046C28.6868 49.5395 29.6562 48.5702 30.3212 47.4204C30.4565 47.1499 30.3438 46.8005 30.0507 46.6539C29.7576 46.5074 29.4082 46.6314 29.2617 46.9132C28.3599 48.4123 26.9509 49.4494 25.2714 49.8664C23.5919 50.2835 21.8561 50.0242 20.3795 49.1337C19.4777 48.5927 18.7225 47.8262 18.1702 46.9245C18.0575 46.699 17.8546 46.575 17.6291 46.575Z" fill="currentColor"/>
<path d="M17.7311 38.01C17.9453 38.4384 18.4638 38.6074 18.8921 38.3933C19.3204 38.1791 19.4895 37.6606 19.2753 37.2323C18.6216 35.9473 17.3366 35.1019 15.8938 35.0117C14.451 35.1019 13.166 35.9473 12.5122 37.2323C12.2981 37.6606 12.4784 38.1791 12.9068 38.3933C13.3351 38.6074 13.8536 38.4384 14.0678 38.01C14.4285 37.3112 15.116 36.8378 15.8938 36.7476C16.6828 36.849 17.3704 37.3112 17.7311 38.01Z" fill="currentColor"/>
<path d="M18.5086 38.776C18.3846 38.776 18.2606 38.7535 18.1479 38.7196C17.8548 38.6182 17.6181 38.4153 17.4829 38.1448C17.1673 37.5361 16.5586 37.119 15.871 37.0401C15.2398 37.119 14.6424 37.5361 14.3268 38.156C14.045 38.7084 13.3574 38.9451 12.7938 38.6633C12.2302 38.3815 11.9935 37.6939 12.2753 37.119C12.9741 35.7551 14.3606 34.8421 15.8935 34.752C17.4603 34.8421 18.8468 35.7551 19.5456 37.119C19.8274 37.6826 19.602 38.3815 19.0384 38.6633C18.858 38.7309 18.6777 38.776 18.5086 38.776ZM15.871 36.4765C16.8066 36.578 17.573 37.0965 17.9788 37.8855C18.0465 38.0208 18.1705 38.1335 18.317 38.1786C18.4635 38.2349 18.6213 38.2124 18.7679 38.1448C19.0497 37.9982 19.1736 37.6488 19.0271 37.3557C18.4184 36.1722 17.2123 35.3832 15.8823 35.293C14.586 35.3719 13.3799 36.1609 12.7712 37.3557C12.6247 37.6375 12.7487 37.9982 13.0418 38.1448C13.3236 38.2913 13.6843 38.1673 13.8195 37.8855C14.2253 37.1078 14.9918 36.578 15.871 36.4765Z" fill="currentColor"/>
<path d="M31.5159 35.0234C30.0731 35.1136 28.7881 35.959 28.1343 37.244C27.9202 37.6723 28.1005 38.1908 28.5288 38.405C28.9572 38.6192 29.4757 38.4501 29.6898 38.0217C30.0505 37.3229 30.7381 36.8495 31.5159 36.7593C32.2936 36.8495 32.9812 37.3229 33.3419 38.0217C33.5561 38.4501 34.0746 38.6192 34.5029 38.405C34.9312 38.1908 35.1003 37.6723 34.8862 37.244C34.2437 35.9477 32.9587 35.1136 31.5159 35.0234Z" fill="currentColor"/>
<path d="M34.1307 38.776C33.7136 38.776 33.3078 38.5393 33.1049 38.1448C32.7893 37.5361 32.1806 37.119 31.4931 37.0401C30.8731 37.119 30.2644 37.5361 29.9488 38.156C29.667 38.7084 28.9794 38.9338 28.4159 38.6633C27.8523 38.3815 27.6156 37.6939 27.8974 37.119C28.5962 35.7551 29.9826 34.8421 31.5156 34.752H31.5382H31.5607C33.0937 34.8421 34.4801 35.7551 35.179 37.119C35.4608 37.6826 35.2353 38.3815 34.6717 38.6633C34.4801 38.7309 34.2998 38.776 34.1307 38.776ZM31.4931 36.4765C32.4286 36.578 33.1951 37.1078 33.6009 37.8855C33.6685 38.0321 33.7925 38.1335 33.9391 38.1786C34.0856 38.2237 34.2434 38.2124 34.3899 38.1448C34.683 37.9982 34.7957 37.6488 34.6492 37.3557C34.0405 36.1722 32.8457 35.3832 31.5269 35.293C30.1968 35.3832 29.002 36.1722 28.3933 37.3557C28.2468 37.6375 28.3708 37.9982 28.6638 38.1448C28.9456 38.2913 29.2951 38.1673 29.4416 37.8855C29.8474 37.1078 30.6139 36.578 31.4931 36.4765Z" fill="currentColor"/>
<path d="M34.1882 21.1348H34.1205C29.995 21.1573 26.1964 23.6709 23.7166 27.943C21.2368 23.6822 17.4382 21.1686 13.3127 21.1348H13.2451C9.9199 21.2024 6.76378 22.5663 4.44179 24.9334C1.75909 27.6048 0.259934 31.2343 0.282477 35.0217C0.282477 47.8378 22.3415 60.4171 23.2883 60.9469C23.5476 61.0934 23.8744 61.0934 24.145 60.9469C25.0805 60.4171 47.1508 47.849 47.1508 35.0217C47.1733 31.2343 45.6742 27.6048 42.9915 24.9334C40.6695 22.5663 37.5021 21.2024 34.1882 21.1348ZM23.7166 59.1772C20.6394 57.3625 2.01834 45.9103 2.01834 35.0217C1.9958 31.6965 3.3146 28.5065 5.65914 26.162C7.65426 24.1105 10.3708 22.9383 13.2338 22.8706H13.2902C17.2015 22.8932 20.7972 25.6322 22.9276 30.1748C23.1305 30.6144 23.649 30.7947 24.0773 30.5918C24.2577 30.5017 24.4155 30.3551 24.4944 30.1748C26.6135 25.621 30.2205 22.8932 34.1318 22.8706H34.1882C37.0399 22.9383 39.7677 24.1218 41.7628 26.162C44.1187 28.5065 45.4262 31.6965 45.4036 35.0217C45.4036 45.9103 26.7826 57.3625 23.7166 59.1772Z" fill="currentColor"/>
<path d="M23.7162 61.3292C23.5246 61.3292 23.3217 61.2841 23.1526 61.1827C22.2058 60.6529 0.000243424 47.9946 0.000243424 35.0207C-0.0223003 31.1883 1.52194 27.4348 4.23845 24.7408C6.61681 22.3061 9.81801 20.9309 13.2221 20.8633H13.301C17.3814 20.8858 21.1575 23.2642 23.7049 27.4009C26.2524 23.2642 30.0284 20.8858 34.1088 20.8633H34.1877C37.6031 20.9309 40.793 22.3061 43.1714 24.7521C45.8879 27.4573 47.4321 31.1996 47.4096 35.032C47.4096 47.9946 25.2041 60.6642 24.2685 61.1939C24.0994 61.2841 23.9078 61.3292 23.7162 61.3292ZM13.2334 21.4156C9.97582 21.4832 6.92115 22.802 4.64424 25.1353C2.02917 27.7278 0.541292 31.3348 0.563835 35.0207C0.563835 47.6677 22.4876 60.1682 23.4231 60.698C23.6035 60.7994 23.8176 60.7994 23.998 60.698C24.9336 60.1682 46.8573 47.6677 46.8573 35.0207C46.8798 31.3348 45.3919 27.7391 42.7881 25.1353C40.5 22.802 37.4566 21.4832 34.1877 21.4156H34.1201C30.1073 21.4381 26.3989 23.8729 23.9529 28.0773L23.7049 28.4943L23.4569 28.0773C21.011 23.8729 17.3025 21.4381 13.2897 21.4156H13.2334ZM23.7162 59.5032L23.5697 59.413C19.9176 57.2713 1.73611 45.9657 1.73611 35.0207C1.71356 31.6504 3.07746 28.3478 5.46709 25.9694C7.51856 23.8616 10.2802 22.6555 13.2334 22.5879C17.3251 22.6104 21.0222 25.4058 23.1864 30.0611C23.3217 30.3542 23.6711 30.4782 23.9642 30.3429C24.0882 30.2865 24.1896 30.1851 24.246 30.0611C26.4214 25.4058 30.1073 22.6217 34.1314 22.5879C37.1522 22.6555 39.9026 23.8503 41.9653 25.9694C44.3549 28.3478 45.7076 31.6504 45.685 35.0207C45.685 45.9657 27.5035 57.2713 23.8515 59.4243L23.7162 59.5032ZM13.2897 23.1515C10.438 23.2191 7.8229 24.3576 5.8616 26.3639C3.57342 28.6409 2.27715 31.797 2.2997 35.0207C2.2997 45.6839 20.9208 57.1924 23.7162 58.8607C26.5003 57.2037 45.1327 45.6839 45.1327 35.032C45.1552 31.8082 43.859 28.6521 41.5708 26.3752C39.6095 24.3688 36.9944 23.2304 34.199 23.1627C30.3553 23.1853 26.8498 25.8567 24.7645 30.3091C24.6518 30.5571 24.4489 30.7487 24.2122 30.8614C23.6373 31.1319 22.9497 30.8839 22.6792 30.3091C20.5939 25.8454 17.0884 23.174 13.2897 23.1515Z" fill="currentColor"/>
<path d="M10.3031 25.565C10.0664 25.6778 4.62207 28.4619 4.62207 33.2863C4.62207 33.7709 5.00531 34.1542 5.49 34.1542C5.97469 34.1542 6.35793 33.7709 6.35793 33.2863C6.35793 29.544 11.0357 27.1431 11.0808 27.1206C11.5092 26.9064 11.6782 26.3879 11.4641 25.9596C11.2499 25.52 10.7314 25.3509 10.3031 25.565Z" fill="currentColor"/>
<path d="M5.48957 34.4355C4.85835 34.4355 4.33984 33.917 4.33984 33.2858C4.33984 28.2923 9.94195 25.4293 10.1787 25.3166C10.7422 25.0348 11.4298 25.2715 11.7116 25.8238C11.9934 26.3874 11.768 27.0862 11.2044 27.368C11.024 27.4582 6.62803 29.7689 6.62803 33.2858C6.6393 33.917 6.12079 34.4355 5.48957 34.4355ZM10.4266 25.8125C10.1899 25.9365 4.89216 28.6418 4.89216 33.2745C4.89216 33.6014 5.15142 33.8606 5.4783 33.8606C5.80518 33.8606 6.06444 33.6014 6.06444 33.2745C6.06444 29.4195 10.7422 26.9623 10.9451 26.8608C11.2382 26.7143 11.3509 26.3648 11.2044 26.0718C11.0691 25.79 10.7197 25.6773 10.4266 25.8125Z" fill="currentColor"/>
<path d="M6.35793 35.8887H4.62207V37.6245H6.35793V35.8887Z" fill="currentColor"/>
<path d="M6.6393 37.9069H4.33984V35.6074H6.6393V37.9069ZM4.90344 37.3433H6.07571V36.171H4.90344V37.3433Z" fill="currentColor"/>
<path d="M34.9987 3.74219H32.9697V5.77112H34.9987V3.74219Z" fill="currentColor"/>
<path d="M24.7426 16.5455C24.2466 16.5455 23.8408 16.1398 23.8408 15.6438V8.49745C23.8408 8.00149 24.2466 7.5957 24.7426 7.5957C25.2385 7.5957 25.6443 8.00149 25.6443 8.49745V15.6438C25.6443 16.1398 25.2498 16.5455 24.7426 16.5455Z" fill="currentColor"/>
<path d="M24.7421 16.8279C24.0884 16.8279 23.5586 16.2981 23.5586 15.6443V8.498C23.5586 7.84423 24.0884 7.31445 24.7421 7.31445C25.3959 7.31445 25.9257 7.84423 25.9257 8.498V15.6443C25.9257 16.2981 25.3959 16.8279 24.7421 16.8279ZM24.7421 7.87805C24.404 7.87805 24.1222 8.15984 24.1222 8.498V15.6443C24.1222 15.9825 24.404 16.2643 24.7421 16.2643C25.0803 16.2643 25.3621 15.9825 25.3621 15.6443V8.498C25.3621 8.15984 25.0916 7.87805 24.7421 7.87805Z" fill="currentColor"/>
<path d="M29.2174 12.0697C29.2174 12.5657 28.8116 12.9715 28.3157 12.9715H21.1693C20.6734 12.9715 20.2676 12.5657 20.2676 12.0697C20.2676 11.5738 20.6734 11.168 21.1693 11.168H28.3157C28.8116 11.168 29.2174 11.5738 29.2174 12.0697Z" fill="currentColor"/>
<path d="M28.3152 13.2538H21.1689C20.5151 13.2538 19.9854 12.724 19.9854 12.0703C19.9854 11.4165 20.5151 10.8867 21.1689 10.8867H28.3152C28.969 10.8867 29.4988 11.4165 29.4988 12.0703C29.4988 12.724 28.969 13.2538 28.3152 13.2538ZM21.1802 11.4503C20.842 11.4503 20.5602 11.7321 20.5602 12.0703C20.5602 12.4084 20.842 12.6902 21.1802 12.6902H28.3265C28.6647 12.6902 28.9465 12.4084 28.9465 12.0703C28.9465 11.7321 28.6647 11.4503 28.3265 11.4503H21.1802Z" fill="currentColor"/>
<path d="M55.0746 39.4967C54.5786 39.4967 54.1729 39.0909 54.1729 38.595V31.4486C54.1729 30.9527 54.5786 30.5469 55.0746 30.5469C55.5706 30.5469 55.9763 30.9527 55.9763 31.4486V38.595C55.9763 39.0909 55.5818 39.4967 55.0746 39.4967Z" fill="currentColor"/>
<path d="M55.0742 39.7791C54.4204 39.7791 53.8906 39.2493 53.8906 38.5955V31.4492C53.8906 30.7954 54.4204 30.2656 55.0742 30.2656C55.7279 30.2656 56.2577 30.7954 56.2577 31.4492V38.5955C56.2577 39.238 55.7279 39.7791 55.0742 39.7791ZM55.0742 30.8292C54.736 30.8292 54.4542 31.111 54.4542 31.4492V38.5955C54.4542 38.9337 54.736 39.2155 55.0742 39.2155C55.4123 39.2155 55.6941 38.9337 55.6941 38.5955V31.4492C55.6941 31.111 55.4236 30.8292 55.0742 30.8292Z" fill="currentColor"/>
<path d="M59.5495 35.0209C59.5495 35.5168 59.1437 35.9226 58.6477 35.9226H51.5014C51.0054 35.9226 50.5996 35.5168 50.5996 35.0209C50.5996 34.5249 51.0054 34.1191 51.5014 34.1191H58.6477C59.1437 34.1191 59.5495 34.5249 59.5495 35.0209Z" fill="currentColor"/>
<path d="M58.6473 36.205H51.5009C50.8472 36.205 50.3174 35.6752 50.3174 35.0214C50.3174 34.3677 50.8472 33.8379 51.5009 33.8379H58.6473C59.301 33.8379 59.8308 34.3677 59.8308 35.0214C59.8308 35.6752 59.301 36.205 58.6473 36.205ZM51.5009 34.4015C51.1628 34.4015 50.881 34.6833 50.881 35.0214C50.881 35.3596 51.1628 35.6414 51.5009 35.6414H58.6473C58.9854 35.6414 59.2672 35.3596 59.2672 35.0214C59.2672 34.6833 58.9854 34.4015 58.6473 34.4015H51.5009Z" fill="currentColor"/>
<path d="M6.67323 9.23109C6.17727 9.23109 5.77148 8.8253 5.77148 8.32934V1.183C5.77148 0.687036 6.17727 0.28125 6.67323 0.28125C7.16919 0.28125 7.57498 0.687036 7.57498 1.183V8.32934C7.57498 8.8253 7.16919 9.23109 6.67323 9.23109Z" fill="currentColor"/>
<path d="M6.6728 9.51343C6.01903 9.51343 5.48926 8.98366 5.48926 8.32989V1.18354C5.48926 0.529776 6.01903 0 6.6728 0C7.32657 0 7.85634 0.529776 7.85634 1.18354V8.32989C7.85634 8.98366 7.3153 9.51343 6.6728 9.51343ZM6.6728 0.563592C6.33465 0.563592 6.05285 0.845388 6.05285 1.18354V8.32989C6.05285 8.66805 6.33465 8.94984 6.6728 8.94984C7.01096 8.94984 7.29275 8.66805 7.29275 8.32989V1.18354C7.29275 0.845388 7.01096 0.563592 6.6728 0.563592Z" fill="currentColor"/>
<path d="M11.1368 4.75526C11.1368 5.25122 10.731 5.65701 10.2351 5.65701H3.09999C2.60403 5.65701 2.19824 5.25122 2.19824 4.75526C2.19824 4.2593 2.60403 3.85352 3.09999 3.85352H10.2463C10.7423 3.85352 11.1368 4.2593 11.1368 4.75526Z" fill="currentColor"/>
<path d="M10.2346 5.93935H3.09956C2.44579 5.93935 1.91602 5.40958 1.91602 4.75581C1.91602 4.10204 2.44579 3.57227 3.09956 3.57227H10.2459C10.8997 3.57227 11.4294 4.10204 11.4294 4.75581C11.4294 5.40958 10.8884 5.93935 10.2346 5.93935ZM3.09956 4.13586C2.7614 4.13586 2.47961 4.41765 2.47961 4.75581C2.47961 5.09396 2.7614 5.37576 3.09956 5.37576H10.2459C10.5841 5.37576 10.8659 5.09396 10.8659 4.75581C10.8659 4.41765 10.5841 4.13586 10.2346 4.13586H3.09956Z" fill="currentColor"/>
<path d="M53.8226 5.03711H53.7888C51.9966 5.04838 50.3622 6.11921 49.2801 7.94524C48.2093 6.11921 46.5636 5.04838 44.7714 5.03711H44.7375C43.306 5.07092 41.9309 5.64579 40.9277 6.66025C39.7667 7.79871 39.1129 9.35422 39.1242 10.9661C39.1242 16.4442 48.6714 21.8209 49.0772 22.0463C49.1899 22.1139 49.3365 22.1139 49.4492 22.0463C49.855 21.8209 59.4022 16.4442 59.4022 10.9661C59.4135 9.35422 58.7597 7.79871 57.5987 6.66025C56.6293 5.64579 55.2654 5.05965 53.8226 5.03711ZM49.2914 21.2911C47.9613 20.5133 39.9019 15.6214 39.9019 10.9661C39.8907 9.54585 40.4655 8.18195 41.48 7.17876C42.3479 6.29956 43.5202 5.80359 44.7601 5.76978H44.7826C46.4734 5.78105 48.0289 6.95332 48.9532 8.89208C49.0434 9.07243 49.2688 9.1626 49.4492 9.07243C49.5281 9.03861 49.5957 8.98225 49.6295 8.90335C50.5538 6.95332 52.1093 5.79232 53.8001 5.78105H53.8226C55.0626 5.80359 56.2348 6.31083 57.1028 7.19003C58.1172 8.19322 58.6921 9.55712 58.6808 10.9774C58.6808 15.6214 50.6214 20.5133 49.2914 21.2911Z" fill="currentColor"/>
<path d="M49.2914 22.6556C49.1336 22.6556 48.9758 22.6105 48.8292 22.5316C47.781 21.9455 38.5831 16.659 38.5831 10.9555C38.5719 9.19706 39.2933 7.48374 40.5557 6.24384C41.6604 5.12793 43.1482 4.48543 44.7488 4.46289C46.5185 4.47416 48.1304 5.35337 49.2914 6.92015C50.4637 5.36464 52.0643 4.47416 53.7889 4.46289H53.8339C55.4233 4.49671 56.9111 5.12793 58.0271 6.25511C59.2895 7.48374 59.9996 9.20833 59.9884 10.9667C59.9884 16.659 50.7905 21.9455 49.7423 22.5316C49.607 22.6218 49.4492 22.6556 49.2914 22.6556ZM44.7714 6.34529C43.6667 6.36783 42.641 6.80743 41.8745 7.58519C40.9615 8.47567 40.4543 9.71557 40.4655 10.9667C40.4655 15.0697 47.5781 19.601 49.2914 20.638C51.0047 19.601 58.1172 15.0697 58.1172 10.9667C58.1285 9.7043 57.61 8.47567 56.7083 7.58519C55.9418 6.80743 54.916 6.36783 53.8114 6.33402C52.3348 6.34529 50.9596 7.39357 50.1368 9.1407C50.0466 9.3436 49.8775 9.5014 49.6746 9.59158C49.2012 9.80574 48.6489 9.60285 48.4347 9.1407C47.6119 7.39357 46.248 6.34529 44.7714 6.34529Z" fill="currentColor"/>
<path d="M13.4469 14.6641H11.418V16.693H13.4469V14.6641Z" fill="currentColor"/>
<path d="M44.7839 8.22879C44.6711 8.28515 41.9434 9.68286 41.9434 12.0838C41.9434 12.3205 42.135 12.5121 42.3717 12.5121C42.6084 12.5121 42.8 12.3205 42.8 12.0838C42.8 10.2126 45.1446 9.01782 45.1671 8.99528C45.3813 8.88256 45.4715 8.62331 45.3587 8.40914C45.2573 8.20625 44.998 8.11607 44.7839 8.22879Z" fill="currentColor"/>
<path d="M42.3713 12.7939C41.9767 12.7939 41.6611 12.4671 41.6611 12.0725C41.6611 9.48002 44.5355 8.02595 44.6594 7.95832C45.0089 7.77797 45.4372 7.9245 45.6176 8.27393C45.7979 8.62336 45.6514 9.06296 45.3019 9.23204C45.2794 9.24331 43.0927 10.3705 43.0927 12.0613C43.0814 12.4783 42.7658 12.7939 42.3713 12.7939ZM44.9751 8.46555C44.9525 8.46555 44.93 8.46555 44.9074 8.47682C44.8849 8.48809 42.2247 9.82944 42.2247 12.0838C42.2247 12.2529 42.5291 12.2529 42.5291 12.0838C42.5291 10.0098 45.0314 8.75862 45.054 8.74735C45.0878 8.73608 45.1103 8.70226 45.1216 8.65717C45.1329 8.62336 45.1329 8.57827 45.1103 8.54445C45.0765 8.48809 45.0314 8.46555 44.9751 8.46555Z" fill="currentColor"/>
</g>
<defs>
<clipPath id="clip0">
<rect width="60" height="61.3301" fill="white"/>
</clipPath>
</defs>
</svg>
