<svg width="15" height="21" viewBox="0 0 15 21" fill="none" xmlns="http://www.w3.org/2000/svg">
<path d="M7.25064 0.595703C3.50295 0.595703 0.464844 3.52131 0.464844 7.13023C0.464844 8.43091 1.377 10.4211 1.9728 11.4866L5.93448 18.5715C6.51004 19.6009 7.99124 19.6009 8.5668 18.5715L12.5285 11.4866C13.1243 10.4211 14.0364 8.43091 14.0364 7.13023C14.0364 3.52131 10.9983 0.595703 7.25064 0.595703ZM7.25064 3.98398C9.05509 3.98398 10.5179 5.39263 10.5179 7.13023C10.5179 8.86786 9.05509 10.2765 7.25064 10.2765C5.4462 10.2765 3.98341 8.86786 3.98341 7.13023C3.98341 5.39263 5.4462 3.98398 7.25064 3.98398Z" fill="currentColor"/>
</svg>
