<svg width="140" height="140" viewBox="0 0 140 140" fill="none" xmlns="http://www.w3.org/2000/svg">
<path d="M70 0L130.622 35V105L70 140L9.37822 105V35L70 0Z" fill="white"/>
<path d="M70 0L130.622 35V105L70 140L9.37822 105V35L70 0Z" stroke="#2F80ED"/>
<g clip-path="url(#clip0)">
<path d="M111 52.9648H45.2754V87.0945H111V52.9648Z" fill="#64A279"/>
<path d="M99.3528 61.875H33.6279V96.0047H99.3528V61.875Z" fill="#75B96E"/>
<path d="M94.1647 66.043H38.3086V92.2767H94.1647V66.043Z" fill="#8BC287"/>
<path d="M71.5056 70.0293H60.9674L55.7031 79.1599L60.9674 88.2905H71.5056L76.7699 79.1599L71.5056 70.0293Z" fill="#CEE4C9"/>
<path d="M90.3831 77.002H82.3887V80.8734H90.3831V77.002Z" fill="#A5CE9A"/>
<path d="M52.5187 77.002H42.7217V80.8734H52.5187V77.002Z" fill="#A5CE9A"/>
<path d="M62.8135 72.7812L59.1318 79.1602L62.8135 85.5392H70.172L73.8489 79.1602L70.172 72.7812H62.8135Z" fill="#A5CE9A"/>
<path d="M33.7042 87.88H28V59.2871H88.3554V61.876H33.6277L33.7042 87.88Z" fill="#538A64"/>
<path d="M101.758 39.1309H67.5664V73.3515H101.758V39.1309Z" fill="#E9B266"/>
<path d="M101.442 39.1309H97.2676V73.5859H101.442V39.1309Z" fill="#DB9C4A"/>
<path d="M104.005 39.1309H65.0938V44.5958H104.005V39.1309Z" fill="#4E7FBC"/>
<path d="M87.2219 49.3848H83.2725V66.8133H87.2219V49.3848Z" fill="white"/>
<path d="M83.2724 49.3848L79.8633 54.7588H84.5873L83.2724 49.3848Z" fill="white"/>
<path d="M90.1051 64.043H79.2227V68.0388H90.1051V64.043Z" fill="white"/>
<path d="M79.2226 34H73.2842V42.9009H79.2226V34Z" fill="#515352"/>
<path d="M95.0732 34H89.1348V42.9009H95.0732V34Z" fill="#515352"/>
</g>
<defs>
<clipPath id="clip0">
<rect width="83" height="62" fill="white" transform="translate(28 34)"/>
</clipPath>
</defs>
</svg>
