<svg width="75" height="101" viewBox="0 0 75 101" fill="none" xmlns="http://www.w3.org/2000/svg">
<path opacity="0.2" d="M0 100.247L17.2289 97.2244L60.0376 97.0229L75 98.3295L56.2197 99.5079L16.5684 100.009L0 100.247Z" fill="#C4C3C4"/>
<path d="M61.7045 10.9351H15.3325V70.4089H61.7045V10.9351Z" fill="#F3F3F4"/>
<path d="M49.0993 10.0493H27.9253V12.5159H49.0993V10.0493Z" fill="#EBB266"/>
<path d="M49.0993 8.81641H27.9253V10.0497H49.0993V8.81641Z" fill="#F7D1A0"/>
<path d="M42.2817 1.80127H37.1973V8.8165H42.2817V1.80127Z" fill="#EBB266"/>
<path d="M37.1973 1.80127H34.749V8.8165H37.1973V1.80127Z" fill="#DC9D4B"/>
<path d="M34.8154 1.80113L35.985 0H41.421L42.2815 1.80113H34.8154Z" fill="#F7D1A0"/>
<path d="M65.8976 70.4087H11.1323V73.9377H65.8976V70.4087Z" fill="#EBB266"/>
<path d="M61.6555 76.6789H15.3744L11.1323 73.9375H65.8976L61.6555 76.6789Z" fill="#BF8644"/>
<path d="M23.0835 76.6792H28.1255L23.4532 97.0655H20.1201L23.0835 76.6792Z" fill="#DC9D4B"/>
<path d="M23.0832 76.6792H20.1198L17.52 97.2242L20.1198 97.0655L23.0832 76.6792Z" fill="#BF8644"/>
<path d="M54.7713 76.5938H49.7354L54.4077 96.9801H57.7408L54.7713 76.5938Z" fill="#DC9D4B"/>
<path d="M54.7715 76.5938H57.7409L60.3407 97.1449L57.7409 96.9801L54.7715 76.5938Z" fill="#BF8644"/>
</svg>
