<svg width="140" height="140" viewBox="0 0 140 140" fill="none" xmlns="http://www.w3.org/2000/svg">
<path d="M70 0L130.622 35V105L70 140L9.37822 105V35L70 0Z" fill="white"/>
<path d="M70 0L130.622 35V105L70 140L9.37822 105V35L70 0Z" stroke="#2F80ED"/>
<path d="M71.173 88.3809L117.709 100.504L74.3015 110.671L28.1562 100.504L71.173 88.3809Z" fill="#EDEEEF"/>
<path d="M56.7398 87.0193L63.5108 76.0992L70.6981 78.0788L81.1635 90.9591L98.7512 87.7374L108 63.4129L96.5982 34.0811L65.28 28L45.3638 40.1623L36.5439 64.8426L41.2791 78.4346L50.5607 90.9591L56.7398 87.0193Z" fill="#E9B266"/>
<path d="M81.1632 90.96L98.7509 87.7383L108 63.4138L96.5979 34.082L90.5034 37.3037L101.652 62.521L94.5816 83.805L76.4346 85.1312L81.1632 90.96Z" fill="#DB9C4A"/>
<path d="M90.5032 37.3028L66.4047 34.0811L45.3633 40.1623L65.2795 28L96.5977 34.0811L90.5032 37.3028Z" fill="#EBBE6F"/>
<path d="M63.5107 76.0995L58.2682 73.9258L51.6403 84.1473L42.9766 80.7315L50.5606 90.9594L56.7397 87.0196L63.5107 76.0995Z" fill="#DB9C4A"/>
<path d="M88.7862 59.4805L78.0801 62.521L86.7763 73.9264L93.801 66.7002L88.7862 59.4805Z" fill="#C9619D"/>
<path d="M90.8935 62.5215L84.5713 71.0351L86.7762 73.9268L93.8009 66.7006L90.8935 62.5215Z" fill="#923C7A"/>
<path d="M77.7807 41.1523L69.1885 48.1974L81.7483 55.1907L85.2801 45.7779L77.7807 41.1523Z" fill="#7DA0C8"/>
<path d="M80.935 43.0996L78.5674 53.4181L81.748 55.1907L85.2798 45.7779L80.935 43.0996Z" fill="#4C8AB8"/>
<path d="M59.1853 51.5605L50.5996 58.6056L63.1594 65.5989L66.6913 56.1796L59.1853 51.5605Z" fill="#75B96E"/>
<path d="M62.3467 53.5078L59.9727 63.8263L63.1598 65.5989L66.6916 56.1796L62.3467 53.5078Z" fill="#64A279"/>
<path d="M60.9933 86.7992L51.6206 93.7342L20.6016 49.5982L21.9999 42.7109L60.9933 86.7992Z" fill="#6F7273"/>
<path d="M60.9928 86.7988L64.8954 91.6249L54.6316 98.6958L51.6201 93.7339L60.9928 86.7988Z" fill="#C4C3C4"/>
<path d="M64.8956 91.625L76.4343 102.933L75.0359 113L60.9931 109.37L54.6318 98.6959L64.8956 91.625Z" fill="#E9B266"/>
<path d="M22 48.2051L54.6321 90.9593L51.6206 93.7346L22 52.3854V48.2051Z" fill="#515352"/>
<path d="M75.036 113L76.4344 102.934L60.9932 109.371L75.036 113Z" fill="#923C7A"/>
<path d="M70.9581 97.5703L59.9463 107.624L60.9935 109.37L76.4347 102.933L70.9581 97.5703Z" fill="#C9619D"/>
</svg>
