<svg width="54" height="54" viewBox="0 0 54 54" fill="none" xmlns="http://www.w3.org/2000/svg">
<g clip-path="url(#clip0)">
<path d="M25.2004 37.8008H23.4004V39.6008H25.2004V37.8008Z" fill="currentColor"/>
<path d="M53.9996 44.0992C53.9896 42.8792 53.1796 41.8192 51.9996 41.4992C52.4896 40.2892 52.0396 38.9092 50.9396 38.2192C51.1696 37.8192 51.2996 37.3592 51.2996 36.8992C51.2996 35.4092 50.0896 34.1992 48.5996 34.1992H39.1196C36.4096 34.1992 33.7296 34.8192 31.2896 35.9992H28.7996V35.0992C28.7996 34.5992 28.3996 34.1992 27.8996 34.1992H21.5996V35.9992H26.9996V48.5992H21.5996V50.3992H27.8996C28.3996 50.3992 28.7996 49.9992 28.7996 49.4992V48.5992H30.0596C30.6596 48.5992 31.2196 48.8992 31.5596 49.3992L33.1996 51.8592C34.6696 54.0692 37.6496 54.6592 39.8596 53.1892C40.5596 52.7292 41.1196 52.0892 41.4896 51.3392L41.9596 50.3892H49.4996C50.9896 50.3992 52.1996 49.1892 52.1996 47.7092C52.1996 47.3592 52.1296 47.0092 51.9996 46.6892C53.1796 46.3792 53.9996 45.3192 53.9996 44.0992ZM51.2996 44.9992H41.3996V46.7992H49.4996C49.9996 46.7992 50.3996 47.1992 50.3996 47.6992C50.3996 48.1992 49.9996 48.5992 49.4996 48.5992H37.7996V50.3992H39.9396L39.8696 50.5392C39.1296 52.0192 37.3196 52.6192 35.8396 51.8792C35.3696 51.6492 34.9696 51.2992 34.6896 50.8592L33.0496 48.3992C32.3796 47.3992 31.2596 46.7992 30.0596 46.7992H28.7996V37.7992H31.4996C31.6396 37.7992 31.7796 37.7692 31.8996 37.7092C34.1396 36.5892 36.6196 35.9992 39.1196 35.9992H48.5996C49.0996 35.9992 49.4996 36.3992 49.4996 36.8992C49.4996 37.3992 49.0996 37.7992 48.5996 37.7992H41.3996V39.5992H49.4996C49.9996 39.5992 50.3996 39.9992 50.3996 40.4992C50.3996 40.9992 49.9996 41.3992 49.4996 41.3992H43.1996V43.1992H51.2996C51.7996 43.1992 52.1996 43.5992 52.1996 44.0992C52.1996 44.5992 51.7996 44.9992 51.2996 44.9992Z" fill="currentColor"/>
<path d="M51.35 12.5199L50.4 12.0499V4.49991C50.41 3.00991 49.2 1.79991 47.72 1.79991C47.37 1.79991 47.02 1.86991 46.7 1.99991C46.32 0.569912 44.85 -0.290088 43.42 0.0899124C42.48 0.339912 41.75 1.06991 41.51 1.99991C40.3 1.50991 38.92 1.95991 38.23 3.05991C37.83 2.82991 37.37 2.69991 36.91 2.69991C35.42 2.69991 34.21 3.90991 34.21 5.39991V14.8799C34.21 17.5899 34.83 20.2699 36.01 22.7099V25.1999H35.11C34.61 25.1999 34.21 25.5999 34.21 26.0999V32.3999H36V26.9999H48.6V32.3999H50.4V26.0999C50.4 25.5999 50 25.1999 49.5 25.1999H48.6V23.9399C48.6 23.3399 48.9 22.7799 49.4 22.4399L51.86 20.7999C54.07 19.3299 54.66 16.3499 53.19 14.1399C52.73 13.4499 52.09 12.8899 51.35 12.5199ZM50.86 19.3099L48.4 20.9499C47.4 21.6199 46.8 22.7399 46.8 23.9499V25.2099H37.8V22.5099C37.8 22.3699 37.77 22.2299 37.71 22.1099C36.59 19.8699 36 17.3899 36 14.8899V5.39991C36 4.89991 36.4 4.49991 36.9 4.49991C37.4 4.49991 37.8 4.89991 37.8 5.39991V12.5999H39.6V4.49991C39.6 3.99991 40 3.59991 40.5 3.59991C41 3.59991 41.4 3.99991 41.4 4.49991V10.7999H43.2V2.69991C43.2 2.19991 43.6 1.79991 44.1 1.79991C44.6 1.79991 45 2.19991 45 2.69991V12.5999H46.8V4.49991C46.8 3.99991 47.2 3.59991 47.7 3.59991C48.2 3.59991 48.6 3.99991 48.6 4.49991V16.1999H50.4V14.0599L50.54 14.1299C52.02 14.8699 52.62 16.6799 51.88 18.1599C51.65 18.6199 51.3 19.0199 50.86 19.3099Z" fill="currentColor"/>
<path d="M39.5998 28.8008H37.7998V30.6008H39.5998V28.8008Z" fill="currentColor"/>
<path d="M2.65991 41.4796L3.60991 41.9496V49.4896C3.59991 50.9796 4.80991 52.1896 6.28991 52.1896C6.63991 52.1896 6.98991 52.1196 7.30991 51.9896C7.68991 53.4196 9.15991 54.2796 10.5899 53.8996C11.5199 53.6496 12.2499 52.9196 12.4999 51.9896C13.7099 52.4796 15.0899 52.0296 15.7799 50.9296C16.1799 51.1596 16.6399 51.2896 17.0999 51.2896C18.5899 51.2896 19.7999 50.0796 19.7999 48.5896V39.1096C19.7999 36.3996 19.1799 33.7196 17.9999 31.2796V28.7996H18.8999C19.3999 28.7996 19.7999 28.3996 19.7999 27.8996V21.5996H17.9999V26.9996H5.39991V21.5996H3.59991V27.8996C3.59991 28.3996 3.99991 28.7996 4.49991 28.7996H5.39991V30.0596C5.39991 30.6596 5.09991 31.2196 4.59991 31.5596L2.13991 33.1996C-0.0700881 34.6696 -0.660088 37.6496 0.809912 39.8596C1.26991 40.5496 1.90991 41.1096 2.65991 41.4796ZM3.13991 34.6896L5.59991 33.0496C6.59991 32.3796 7.19991 31.2596 7.19991 30.0596V28.7996H16.1999V31.4996C16.1999 31.6396 16.2299 31.7796 16.2899 31.8996C17.4099 34.1396 17.9899 36.6196 17.9999 39.1196V48.5996C17.9999 49.0996 17.5999 49.4996 17.0999 49.4996C16.5999 49.4996 16.1999 49.0996 16.1999 48.5996V41.3996H14.3999V49.4996C14.3999 49.9996 13.9999 50.3996 13.4999 50.3996C12.9999 50.3996 12.5999 49.9996 12.5999 49.4996V43.1996H10.7999V51.2996C10.7999 51.7996 10.3999 52.1996 9.89991 52.1996C9.39991 52.1996 8.99991 51.7996 8.99991 51.2996V41.3996H7.19991V49.4996C7.19991 49.9996 6.79991 50.3996 6.29991 50.3996C5.79991 50.3996 5.39991 49.9996 5.39991 49.4996V37.7996H3.59991V39.9396L3.45991 39.8696C1.97991 39.1296 1.37991 37.3196 2.11991 35.8396C2.34991 35.3796 2.69991 34.9796 3.13991 34.6896Z" fill="currentColor"/>
<path d="M16.2004 23.4004H14.4004V25.2004H16.2004V23.4004Z" fill="currentColor"/>
<path d="M30.5998 14.4004H28.7998V16.2004H30.5998V14.4004Z" fill="currentColor"/>
<path d="M1.99991 12.4999C1.50991 13.7099 1.95991 15.0899 3.05991 15.7799C2.82991 16.1799 2.69991 16.6399 2.69991 17.0999C2.69991 18.5899 3.90991 19.7999 5.39991 19.7999H14.8799C17.5899 19.7999 20.2699 19.1799 22.7099 17.9999H25.1999V18.8999C25.1999 19.3999 25.5999 19.7999 26.0999 19.7999H32.3999V17.9999H26.9999V5.39991H32.3999V3.59991H26.0999C25.5999 3.59991 25.1999 3.99991 25.1999 4.49991V5.39991H23.9399C23.3399 5.39991 22.7799 5.09991 22.4399 4.59991L20.7999 2.13991C19.3299 -0.0700881 16.3499 -0.660088 14.1399 0.809912C13.4399 1.26991 12.8799 1.90991 12.5099 2.65991L12.0499 3.59991H4.49991C3.01991 3.59991 1.80991 4.79991 1.79991 6.27991C1.79991 6.62991 1.86991 6.97991 1.99991 7.29991C0.569912 7.67991 -0.290088 9.14991 0.0899124 10.5799C0.339912 11.5199 1.06991 12.2499 1.99991 12.4999ZM2.69991 8.99991H12.5999V7.19991H4.49991C3.99991 7.19991 3.59991 6.79991 3.59991 6.29991C3.59991 5.79991 3.99991 5.39991 4.49991 5.39991H16.1999V3.59991H14.0599L14.1299 3.45991C14.8699 1.97991 16.6799 1.37991 18.1599 2.11991C18.6299 2.34991 19.0299 2.69991 19.3099 3.13991L20.9499 5.59991C21.6199 6.59991 22.7399 7.19991 23.9499 7.19991H25.2099V16.1999H22.5099C22.3699 16.1999 22.2299 16.2299 22.1099 16.2899C19.8699 17.4099 17.3899 17.9899 14.8899 17.9999H5.39991C4.89991 17.9999 4.49991 17.5999 4.49991 17.0999C4.49991 16.5999 4.89991 16.1999 5.39991 16.1999H12.5999V14.3999H4.49991C3.99991 14.3999 3.59991 13.9999 3.59991 13.4999C3.59991 12.9999 3.99991 12.5999 4.49991 12.5999H10.7999V10.7999H2.69991C2.19991 10.7999 1.79991 10.3999 1.79991 9.89991C1.79991 9.39991 2.19991 8.99991 2.69991 8.99991Z" fill="currentColor"/>
</g>
<defs>
<clipPath id="clip0">
<rect width="54" height="54" fill="white"/>
</clipPath>
</defs>
</svg>
