<svg viewBox="0 0 21 20" fill="none" xmlns="http://www.w3.org/2000/svg">
<path d="M13.6338 19.8589C12.5116 19.8589 11.4038 19.6602 10.354 19.2555C8.4788 18.5196 6.74117 17.4673 5.2135 16.1427C3.64963 14.8255 2.31745 13.2434 1.26763 11.4699C-0.535165 8.28362 -0.404843 4.33199 1.59343 1.26341C1.94096 0.711504 2.49845 0.336209 3.13558 0.233187C3.75099 0.144882 4.37364 0.321492 4.85149 0.726221L7.83443 3.27234C8.75393 4.05972 8.87701 5.45788 8.10231 6.39243C8.05163 6.45866 7.99371 6.51753 7.93579 6.5764L6.21988 8.23211C6.92941 9.51253 7.86339 10.6458 8.98561 11.5803C10.0789 12.537 11.3459 13.2802 12.707 13.7659L14.0175 11.7569C14.6836 10.7341 16.0375 10.4544 17.0366 11.1314C17.109 11.1756 17.1742 11.2271 17.2321 11.286L20.2223 13.8321C21.1418 14.6195 21.2649 16.0176 20.4902 16.9596C20.4395 17.0258 20.3816 17.0847 20.3237 17.1435C18.5136 18.8802 16.1244 19.8589 13.6338 19.8589ZM3.45415 1.68285C3.41795 1.68285 3.38175 1.68285 3.34555 1.69021C3.13558 1.71965 2.94734 1.84475 2.8315 2.02871C1.10834 4.6337 0.992503 8.00399 2.52017 10.7341C3.48311 12.3604 4.70669 13.81 6.14748 15.0242C7.55206 16.2384 9.15213 17.2024 10.868 17.8868C13.7931 18.9685 17.0728 18.2694 19.3245 16.0839C19.6214 15.7969 19.6286 15.3259 19.3535 15.0316C19.3318 15.0095 19.3173 14.9948 19.2956 14.9727L16.3054 12.4266C15.9941 12.1617 15.5307 12.2058 15.27 12.5149C15.2483 12.537 15.2338 12.559 15.2194 12.5811L13.8582 14.671C13.5324 15.1714 12.9242 15.3921 12.3595 15.2155C10.7812 14.671 9.31142 13.8247 8.04439 12.7209C6.75565 11.6466 5.68411 10.322 4.88045 8.83553C4.61257 8.3057 4.72117 7.65813 5.14834 7.24605L6.93665 5.5241C7.2335 5.22976 7.24074 4.7588 6.96561 4.45709C6.94389 4.44237 6.92217 4.4203 6.90769 4.40558L3.91752 1.85946C3.78719 1.74172 3.62067 1.68285 3.45415 1.68285Z" fill="white"/>
</svg>
