<svg width="69" height="49" viewBox="0 0 69 49" fill="none" xmlns="http://www.w3.org/2000/svg">
<g clip-path="url(#clip0)">
<path d="M39.3201 28.68H54.4601C56.0901 28.68 57.4101 27.36 57.4101 25.73V2.95C57.4001 1.32 56.0901 0 54.4601 0H39.3201C37.6901 0 36.3701 1.32 36.3701 2.95V25.73C36.3801 27.36 37.6901 28.68 39.3201 28.68ZM38.2901 2.95C38.2901 2.38 38.7501 1.92 39.3301 1.91H54.4701C55.0401 1.91 55.5001 2.37 55.5101 2.95V25.73C55.5101 26.3 55.0501 26.76 54.4701 26.77H39.3201C38.7501 26.77 38.2901 26.31 38.2801 25.73V2.95H38.2901Z" fill="currentColor"/>
<path d="M42.1102 24.8601H51.6702C52.7302 24.8601 53.5802 24.0001 53.5802 22.9501V5.74008C53.5802 4.68008 52.7202 3.83008 51.6702 3.83008H42.1102C41.0502 3.83008 40.2002 4.69008 40.2002 5.74008V22.9501C40.2002 24.0001 41.0502 24.8601 42.1102 24.8601ZM42.1102 5.74008H51.6702V22.9501H42.1102V5.74008Z" fill="currentColor"/>
<path d="M47.1702 12.2398C47.0002 12.0998 46.8402 11.9698 46.7102 11.8398C47.1302 10.8698 47.7502 9.99984 48.5302 9.27984C48.9002 8.90984 48.9002 8.29984 48.5302 7.92984C48.1602 7.55984 47.5502 7.55984 47.1802 7.92984C46.1102 8.98984 43.7902 11.6298 45.2702 13.1098C45.4602 13.2998 45.7002 13.4998 45.9402 13.7098C47.1302 14.4698 47.8602 15.7998 47.8502 17.2098C47.8502 18.9598 44.9702 19.1198 44.9402 19.1198C44.4102 19.1298 43.9902 19.5698 44.0002 20.0998C44.0102 20.6298 44.4502 21.0498 44.9802 21.0398H45.0202C46.6602 20.9698 49.7602 20.0798 49.7602 17.2198C49.7602 15.2298 48.7902 13.3698 47.1702 12.2398Z" fill="currentColor"/>
<path d="M14.4695 28.68H29.5995C31.2295 28.68 32.5495 27.36 32.5495 25.73V2.95C32.5495 1.32 31.2295 0 29.5995 0H14.4695C12.8395 0 11.5195 1.32 11.5195 2.95V25.73C11.5195 27.36 12.8395 28.68 14.4695 28.68ZM13.4295 2.95C13.4295 2.38 13.8895 1.92 14.4695 1.91H29.5995C30.1695 1.91 30.6295 2.37 30.6395 2.95V25.73C30.6395 26.3 30.1795 26.76 29.5995 26.77H14.4695C13.8995 26.77 13.4395 26.31 13.4295 25.73V2.95Z" fill="currentColor"/>
<path d="M17.2597 24.8601H26.8197C27.8797 24.8601 28.7297 24.0001 28.7297 22.9501V5.74008C28.7297 4.68008 27.8697 3.83008 26.8197 3.83008H17.2597C16.1997 3.83008 15.3497 4.69008 15.3497 5.74008V22.9501C15.3397 24.0001 16.1997 24.8601 17.2597 24.8601ZM17.2597 5.74008H26.8197V22.9501H17.2597V5.74008Z" fill="currentColor"/>
<path d="M22.3098 12.2398C22.1398 12.0998 21.9798 11.9698 21.8498 11.8398C22.2698 10.8698 22.8898 9.99984 23.6698 9.27984C24.0398 8.90984 24.0398 8.29984 23.6698 7.92984C23.2998 7.55984 22.6898 7.55984 22.3198 7.92984C21.2498 8.98984 18.9298 11.6298 20.4098 13.1098C20.6098 13.2998 20.8398 13.4998 21.0798 13.7098C22.2698 14.4698 22.9998 15.7998 22.9898 17.2098C22.9898 18.9598 20.1098 19.1198 20.0798 19.1198C19.5498 19.1298 19.1298 19.5698 19.1398 20.0998C19.1498 20.6298 19.5898 21.0498 20.1198 21.0398H20.1598C21.7998 20.9698 24.8998 20.0798 24.8998 17.2198C24.9098 15.2298 23.9398 13.3698 22.3098 12.2398Z" fill="currentColor"/>
<path d="M57.3602 33.4609H9.56024C7.45024 33.4609 5.74023 35.1709 5.74023 37.2809C5.74023 39.3909 7.45024 41.1009 9.56024 41.1009H10.5202V47.7909C10.5202 48.3209 10.9502 48.7509 11.4802 48.7509H14.3502C14.8302 48.7509 15.2402 48.3909 15.3002 47.9109L16.1502 41.1009H51.7402L52.5902 47.9109C52.6502 48.3909 53.0602 48.7509 53.5402 48.7509H56.4102C56.9402 48.7509 57.3702 48.3209 57.3702 47.7909V41.1009C59.4802 41.1009 61.1902 39.3909 61.1902 37.2809C61.1902 35.1709 59.4702 33.4609 57.3602 33.4609ZM13.5002 46.8409H12.4302V41.1009H14.2102L13.5002 46.8409ZM55.4502 46.8409H54.3802L53.6602 41.1009H55.4402V46.8409H55.4502ZM57.3602 39.2009H9.56024C8.50024 39.2009 7.65023 38.3409 7.65023 37.2909C7.65023 36.2309 8.51024 35.3809 9.56024 35.3809H57.3602C58.4202 35.3809 59.2702 36.2409 59.2702 37.2909C59.2702 38.3409 58.4202 39.2009 57.3602 39.2009Z" fill="currentColor"/>
<path d="M61.8502 21.7806C61.5902 21.7806 61.3402 21.6806 61.1402 21.4906C60.7502 21.1006 60.7502 20.4706 61.1402 20.0806L66.0802 15.1406L61.2202 10.2806C60.8302 9.89062 60.8302 9.26063 61.2202 8.87062C61.6102 8.48063 62.2402 8.48063 62.6302 8.87062L68.2002 14.4406C68.5902 14.8306 68.5902 15.4606 68.2002 15.8506L62.5502 21.5006C62.3602 21.6806 62.1102 21.7806 61.8502 21.7806Z" fill="currentColor"/>
<path d="M6.65031 8.56055C6.91031 8.56055 7.16031 8.66055 7.36031 8.85055C7.75031 9.24055 7.75031 9.87055 7.36031 10.2605L2.42031 15.2005L7.28031 20.0605C7.67031 20.4505 7.67031 21.0805 7.28031 21.4705C6.89031 21.8605 6.26031 21.8605 5.87031 21.4705L0.300312 15.9005C-0.0896875 15.5105 -0.0896875 14.8805 0.300312 14.4905L5.95031 8.84055C6.14031 8.66055 6.40031 8.56055 6.65031 8.56055Z" fill="currentColor"/>
</g>
<defs>
<clipPath id="clip0">
<rect width="68.5" height="48.75" fill="white"/>
</clipPath>
</defs>
</svg>
