<svg width="49" height="42" viewBox="0 0 49 42" fill="none" xmlns="http://www.w3.org/2000/svg">
<g clip-path="url(#clip0)">
<path d="M11.0196 31.5108H8.87957C7.95957 31.5108 7.21957 30.7708 7.21957 29.8508H5.56957C5.56957 31.6808 7.05957 33.1708 8.88957 33.1708H11.0296C12.8596 33.1708 14.3496 31.6808 14.3496 29.8508C14.3496 28.0208 12.8596 26.5308 11.0296 26.5308H8.87957C7.95957 26.5308 7.21957 25.7908 7.21957 24.8708C7.21957 23.9508 7.95957 23.2108 8.87957 23.2108H11.0196C11.9396 23.2108 12.6796 23.9508 12.6796 24.8708H14.3396C14.3396 23.0408 12.8496 21.5508 11.0196 21.5508H8.87957C7.04957 21.5508 5.55957 23.0408 5.55957 24.8708C5.55957 26.7008 7.04957 28.1908 8.87957 28.1908H11.0196C11.9396 28.1908 12.6796 28.9308 12.6796 29.8508C12.6796 30.7708 11.9396 31.5108 11.0196 31.5108Z" fill="currentColor"/>
<path d="M19.9098 33.1708H20.7398C23.0298 33.1708 24.8898 31.3108 24.8898 29.0208V25.7008C24.8898 23.4108 23.0298 21.5508 20.7398 21.5508H19.9098C17.6198 21.5508 15.7598 23.4108 15.7598 25.7008V29.0208C15.7598 31.3108 17.6198 33.1708 19.9098 33.1708ZM17.4198 25.7108C17.4198 24.3408 18.5298 23.2208 19.9098 23.2208H20.7398C22.1098 23.2208 23.2298 24.3308 23.2298 25.7108V29.0308C23.2298 30.4008 22.1198 31.5208 20.7398 31.5208H19.9098C18.5398 31.5208 17.4198 30.4108 17.4198 29.0308V25.7108Z" fill="currentColor"/>
<path d="M27.37 33.1705H32.35V31.5105H28.2V21.5605H26.54V32.3405C26.54 32.8005 26.91 33.1705 27.37 33.1705Z" fill="currentColor"/>
<path d="M34.8398 33.1708H38.9898C40.8198 33.1708 42.3098 31.6808 42.3098 29.8508V24.8708C42.3098 23.0408 40.8198 21.5508 38.9898 21.5508H34.8398C34.3798 21.5508 34.0098 21.9208 34.0098 22.3808V32.3308C34.0098 32.8008 34.3798 33.1708 34.8398 33.1708ZM35.6698 23.2208H38.9898C39.9098 23.2208 40.6498 23.9608 40.6498 24.8808V29.8608C40.6498 30.7808 39.9098 31.5208 38.9898 31.5208H35.6698V23.2208Z" fill="currentColor"/>
<path d="M24.0496 6.21047C24.7344 6.21047 25.2896 5.6553 25.2896 4.97047C25.2896 4.28564 24.7344 3.73047 24.0496 3.73047C23.3647 3.73047 22.8096 4.28564 22.8096 4.97047C22.8096 5.6553 23.3647 6.21047 24.0496 6.21047Z" fill="currentColor"/>
<path d="M47.28 18.241C47.74 18.241 48.11 17.871 48.11 17.411V14.091C48.11 13.631 47.74 13.261 47.28 13.261H40.93L28.83 3.58096C28.06 0.940957 25.3 -0.569043 22.66 0.200957C21.03 0.680957 19.75 1.95096 19.28 3.58096L7.18 13.261H0.83C0.37 13.261 0 13.641 0 14.091V17.411C0 17.871 0.37 18.241 0.83 18.241H1.66V36.491H0.83C0.37 36.491 0 36.861 0 37.321V40.641C0 41.101 0.37 41.471 0.83 41.471H47.28C47.74 41.471 48.11 41.101 48.11 40.641V37.321C48.11 36.861 47.74 36.491 47.28 36.491H46.45V18.241H47.28ZM24.05 1.65096C25.88 1.65096 27.37 3.14096 27.37 4.97096C27.37 6.80096 25.88 8.29096 24.05 8.29096C22.22 8.29096 20.73 6.80096 20.73 4.97096C20.73 3.14096 22.22 1.65096 24.05 1.65096ZM19.15 5.80096C19.62 8.51096 22.2 10.321 24.91 9.84096C26.97 9.48096 28.59 7.86096 28.95 5.80096L38.27 13.271H9.83L19.15 5.80096ZM1.66 14.921H46.45V16.581H1.66V14.921ZM46.45 39.811H1.66V38.151H46.45V39.811ZM44.79 36.491H3.32V18.241H44.79V36.491Z" fill="currentColor"/>
</g>
<defs>
<clipPath id="clip0">
<rect width="48.11" height="41.47" fill="white"/>
</clipPath>
</defs>
</svg>
